  0
SECTION
  2
BLOCKS
  0
ENDSEC
  0
SECTION
  2
ENTITIES
  0
LINE
  8
0
 10
222.502
 20
0.0157928
 11
223.003
 21
0.0630951
  0
LINE
  8
0
 10
223.003
 20
0.0630951
 11
223.499
 21
0.141708
  0
LINE
  8
0
 10
223.499
 20
0.141708
 11
223.99
 21
0.251343
  0
LINE
  8
0
 10
223.99
 20
0.251343
 11
224.472
 21
0.391556
  0
LINE
  8
0
 10
224.472
 20
0.391556
 11
224.945
 21
0.561798
  0
LINE
  8
0
 10
224.945
 20
0.561798
 11
225.406
 21
0.761398
  0
LINE
  8
0
 10
225.406
 20
0.761398
 11
225.854
 21
0.989548
  0
LINE
  8
0
 10
225.854
 20
0.989548
 11
226.287
 21
1.24539
  0
LINE
  8
0
 10
226.287
 20
1.24539
 11
226.702
 21
1.52788
  0
LINE
  8
0
 10
226.702
 20
1.52788
 11
227.099
 21
1.83591
  0
LINE
  8
0
 10
227.099
 20
1.83591
 11
227.476
 21
2.16826
  0
LINE
  8
0
 10
227.476
 20
2.16826
 11
227.832
 21
2.52364
  0
LINE
  8
0
 10
227.832
 20
2.52364
 11
228.164
 21
2.90062
  0
LINE
  8
0
 10
228.164
 20
2.90062
 11
228.472
 21
3.29773
  0
LINE
  8
0
 10
228.472
 20
3.29773
 11
228.755
 21
3.71339
  0
LINE
  8
0
 10
228.755
 20
3.71339
 11
229.01
 21
4.14598
  0
LINE
  8
0
 10
229.01
 20
4.14598
 11
229.239
 21
4.59378
  0
LINE
  8
0
 10
229.239
 20
4.59378
 11
229.438
 21
5.05501
  0
LINE
  8
0
 10
229.438
 20
5.05501
 11
229.608
 21
5.52788
  0
LINE
  8
0
 10
229.608
 20
5.52788
 11
229.749
 21
6.01048
  0
LINE
  8
0
 10
229.749
 20
6.01048
 11
229.858
 21
6.50096
  0
LINE
  8
0
 10
229.858
 20
6.50096
 11
229.937
 21
6.99734
  0
LINE
  8
0
 10
229.937
 20
6.99734
 11
229.984
 21
7.49768
  0
LINE
  8
0
 10
229.984
 20
7.49768
 11
230
 21
8
  0
LINE
  8
0
 10
230
 20
8
 11
230
 21
162
  0
LINE
  8
0
 10
230
 20
162
 11
229.984
 21
162.502
  0
LINE
  8
0
 10
229.984
 20
162.502
 11
229.937
 21
163.003
  0
LINE
  8
0
 10
229.937
 20
163.003
 11
229.858
 21
163.499
  0
LINE
  8
0
 10
229.858
 20
163.499
 11
229.749
 21
163.99
  0
LINE
  8
0
 10
229.749
 20
163.99
 11
229.608
 21
164.472
  0
LINE
  8
0
 10
229.608
 20
164.472
 11
229.438
 21
164.945
  0
LINE
  8
0
 10
229.438
 20
164.945
 11
229.239
 21
165.406
  0
LINE
  8
0
 10
229.239
 20
165.406
 11
229.01
 21
165.854
  0
LINE
  8
0
 10
229.01
 20
165.854
 11
228.755
 21
166.287
  0
LINE
  8
0
 10
228.755
 20
166.287
 11
228.472
 21
166.702
  0
LINE
  8
0
 10
228.472
 20
166.702
 11
228.164
 21
167.099
  0
LINE
  8
0
 10
228.164
 20
167.099
 11
227.832
 21
167.476
  0
LINE
  8
0
 10
227.832
 20
167.476
 11
227.476
 21
167.832
  0
LINE
  8
0
 10
227.476
 20
167.832
 11
227.099
 21
168.164
  0
LINE
  8
0
 10
227.099
 20
168.164
 11
226.702
 21
168.472
  0
LINE
  8
0
 10
226.702
 20
168.472
 11
226.287
 21
168.755
  0
LINE
  8
0
 10
226.287
 20
168.755
 11
225.854
 21
169.01
  0
LINE
  8
0
 10
225.854
 20
169.01
 11
225.406
 21
169.239
  0
LINE
  8
0
 10
225.406
 20
169.239
 11
224.945
 21
169.438
  0
LINE
  8
0
 10
224.945
 20
169.438
 11
224.472
 21
169.608
  0
LINE
  8
0
 10
224.472
 20
169.608
 11
223.99
 21
169.749
  0
LINE
  8
0
 10
223.99
 20
169.749
 11
223.499
 21
169.858
  0
LINE
  8
0
 10
223.499
 20
169.858
 11
223.003
 21
169.937
  0
LINE
  8
0
 10
223.003
 20
169.937
 11
222.502
 21
169.984
  0
LINE
  8
0
 10
222.502
 20
169.984
 11
222
 21
170
  0
LINE
  8
0
 10
222
 20
170
 11
8
 21
170
  0
LINE
  8
0
 10
8
 20
170
 11
7.49768
 21
169.984
  0
LINE
  8
0
 10
7.49768
 20
169.984
 11
6.99734
 21
169.937
  0
LINE
  8
0
 10
6.99734
 20
169.937
 11
6.50096
 21
169.858
  0
LINE
  8
0
 10
6.50096
 20
169.858
 11
6.01048
 21
169.749
  0
LINE
  8
0
 10
6.01048
 20
169.749
 11
5.52788
 21
169.608
  0
LINE
  8
0
 10
5.52788
 20
169.608
 11
5.05501
 21
169.438
  0
LINE
  8
0
 10
5.05501
 20
169.438
 11
4.59378
 21
169.239
  0
LINE
  8
0
 10
4.59378
 20
169.239
 11
4.14598
 21
169.01
  0
LINE
  8
0
 10
4.14598
 20
169.01
 11
3.71339
 21
168.755
  0
LINE
  8
0
 10
3.71339
 20
168.755
 11
3.29773
 21
168.472
  0
LINE
  8
0
 10
3.29773
 20
168.472
 11
2.90062
 21
168.164
  0
LINE
  8
0
 10
2.90062
 20
168.164
 11
2.52364
 21
167.832
  0
LINE
  8
0
 10
2.52364
 20
167.832
 11
2.16826
 21
167.476
  0
LINE
  8
0
 10
2.16826
 20
167.476
 11
1.83591
 21
167.099
  0
LINE
  8
0
 10
1.83591
 20
167.099
 11
1.52788
 21
166.702
  0
LINE
  8
0
 10
1.52788
 20
166.702
 11
1.24539
 21
166.287
  0
LINE
  8
0
 10
1.24539
 20
166.287
 11
0.989548
 21
165.854
  0
LINE
  8
0
 10
0.989548
 20
165.854
 11
0.761398
 21
165.406
  0
LINE
  8
0
 10
0.761398
 20
165.406
 11
0.561798
 21
164.945
  0
LINE
  8
0
 10
0.561798
 20
164.945
 11
0.391556
 21
164.472
  0
LINE
  8
0
 10
0.391556
 20
164.472
 11
0.251343
 21
163.99
  0
LINE
  8
0
 10
0.251343
 20
163.99
 11
0.141708
 21
163.499
  0
LINE
  8
0
 10
0.141708
 20
163.499
 11
0.0630951
 21
163.003
  0
LINE
  8
0
 10
0.0630951
 20
163.003
 11
0.0157928
 21
162.502
  0
LINE
  8
0
 10
0.0157928
 20
162.502
 11
0
 21
162
  0
LINE
  8
0
 10
0
 20
162
 11
0
 21
8
  0
LINE
  8
0
 10
0
 20
8
 11
0.0157928
 21
7.49768
  0
LINE
  8
0
 10
0.0157928
 20
7.49768
 11
0.0630951
 21
6.99734
  0
LINE
  8
0
 10
0.0630951
 20
6.99734
 11
0.141708
 21
6.50096
  0
LINE
  8
0
 10
0.141708
 20
6.50096
 11
0.251343
 21
6.01048
  0
LINE
  8
0
 10
0.251343
 20
6.01048
 11
0.391556
 21
5.52788
  0
LINE
  8
0
 10
0.391556
 20
5.52788
 11
0.561798
 21
5.05501
  0
LINE
  8
0
 10
0.561798
 20
5.05501
 11
0.761398
 21
4.59378
  0
LINE
  8
0
 10
0.761398
 20
4.59378
 11
0.989548
 21
4.14598
  0
LINE
  8
0
 10
0.989548
 20
4.14598
 11
1.24539
 21
3.71339
  0
LINE
  8
0
 10
1.24539
 20
3.71339
 11
1.52788
 21
3.29773
  0
LINE
  8
0
 10
1.52788
 20
3.29773
 11
1.83591
 21
2.90062
  0
LINE
  8
0
 10
1.83591
 20
2.90062
 11
2.16826
 21
2.52364
  0
LINE
  8
0
 10
2.16826
 20
2.52364
 11
2.52364
 21
2.16826
  0
LINE
  8
0
 10
2.52364
 20
2.16826
 11
2.90062
 21
1.83591
  0
LINE
  8
0
 10
2.90062
 20
1.83591
 11
3.29773
 21
1.52788
  0
LINE
  8
0
 10
3.29773
 20
1.52788
 11
3.71339
 21
1.24539
  0
LINE
  8
0
 10
3.71339
 20
1.24539
 11
4.14598
 21
0.989548
  0
LINE
  8
0
 10
4.14598
 20
0.989548
 11
4.59378
 21
0.761398
  0
LINE
  8
0
 10
4.59378
 20
0.761398
 11
5.05501
 21
0.561798
  0
LINE
  8
0
 10
5.05501
 20
0.561798
 11
5.52788
 21
0.391556
  0
LINE
  8
0
 10
5.52788
 20
0.391556
 11
6.01048
 21
0.251343
  0
LINE
  8
0
 10
6.01048
 20
0.251343
 11
6.50096
 21
0.141708
  0
LINE
  8
0
 10
6.50096
 20
0.141708
 11
6.99734
 21
0.0630951
  0
LINE
  8
0
 10
6.99734
 20
0.0630951
 11
7.49768
 21
0.0157928
  0
LINE
  8
0
 10
7.49768
 20
0.0157928
 11
8
 21
0
  0
LINE
  8
0
 10
8
 20
0
 11
222
 21
0
  0
LINE
  8
0
 10
222
 20
0
 11
222.502
 21
0.0157928
  0
LINE
  8
0
 10
114.906
 20
162.003
 11
114.812
 21
162.012
  0
LINE
  8
0
 10
114.812
 20
162.012
 11
114.719
 21
162.027
  0
LINE
  8
0
 10
114.719
 20
162.027
 11
114.627
 21
162.047
  0
LINE
  8
0
 10
114.627
 20
162.047
 11
114.536
 21
162.073
  0
LINE
  8
0
 10
114.536
 20
162.073
 11
114.448
 21
162.105
  0
LINE
  8
0
 10
114.448
 20
162.105
 11
114.361
 21
162.143
  0
LINE
  8
0
 10
114.361
 20
162.143
 11
114.277
 21
162.186
  0
LINE
  8
0
 10
114.277
 20
162.186
 11
114.196
 21
162.234
  0
LINE
  8
0
 10
114.196
 20
162.234
 11
114.118
 21
162.286
  0
LINE
  8
0
 10
114.118
 20
162.286
 11
114.044
 21
162.344
  0
LINE
  8
0
 10
114.044
 20
162.344
 11
113.973
 21
162.407
  0
LINE
  8
0
 10
113.973
 20
162.407
 11
113.907
 21
162.473
  0
LINE
  8
0
 10
113.907
 20
162.473
 11
113.844
 21
162.544
  0
LINE
  8
0
 10
113.844
 20
162.544
 11
113.786
 21
162.618
  0
LINE
  8
0
 10
113.786
 20
162.618
 11
113.734
 21
162.696
  0
LINE
  8
0
 10
113.734
 20
162.696
 11
113.686
 21
162.777
  0
LINE
  8
0
 10
113.686
 20
162.777
 11
113.643
 21
162.861
  0
LINE
  8
0
 10
113.643
 20
162.861
 11
113.605
 21
162.948
  0
LINE
  8
0
 10
113.605
 20
162.948
 11
113.573
 21
163.036
  0
LINE
  8
0
 10
113.573
 20
163.036
 11
113.547
 21
163.127
  0
LINE
  8
0
 10
113.547
 20
163.127
 11
113.527
 21
163.219
  0
LINE
  8
0
 10
113.527
 20
163.219
 11
113.512
 21
163.312
  0
LINE
  8
0
 10
113.512
 20
163.312
 11
113.503
 21
163.406
  0
LINE
  8
0
 10
113.503
 20
163.406
 11
113.5
 21
163.5
  0
LINE
  8
0
 10
113.5
 20
163.5
 11
113.503
 21
163.594
  0
LINE
  8
0
 10
113.503
 20
163.594
 11
113.512
 21
163.688
  0
LINE
  8
0
 10
113.512
 20
163.688
 11
113.527
 21
163.781
  0
LINE
  8
0
 10
113.527
 20
163.781
 11
113.547
 21
163.873
  0
LINE
  8
0
 10
113.547
 20
163.873
 11
113.573
 21
163.964
  0
LINE
  8
0
 10
113.573
 20
163.964
 11
113.605
 21
164.052
  0
LINE
  8
0
 10
113.605
 20
164.052
 11
113.643
 21
164.139
  0
LINE
  8
0
 10
113.643
 20
164.139
 11
113.686
 21
164.223
  0
LINE
  8
0
 10
113.686
 20
164.223
 11
113.734
 21
164.304
  0
LINE
  8
0
 10
113.734
 20
164.304
 11
113.786
 21
164.382
  0
LINE
  8
0
 10
113.786
 20
164.382
 11
113.844
 21
164.456
  0
LINE
  8
0
 10
113.844
 20
164.456
 11
113.907
 21
164.527
  0
LINE
  8
0
 10
113.907
 20
164.527
 11
113.973
 21
164.593
  0
LINE
  8
0
 10
113.973
 20
164.593
 11
114.044
 21
164.656
  0
LINE
  8
0
 10
114.044
 20
164.656
 11
114.118
 21
164.714
  0
LINE
  8
0
 10
114.118
 20
164.714
 11
114.196
 21
164.766
  0
LINE
  8
0
 10
114.196
 20
164.766
 11
114.277
 21
164.814
  0
LINE
  8
0
 10
114.277
 20
164.814
 11
114.361
 21
164.857
  0
LINE
  8
0
 10
114.361
 20
164.857
 11
114.448
 21
164.895
  0
LINE
  8
0
 10
114.448
 20
164.895
 11
114.536
 21
164.927
  0
LINE
  8
0
 10
114.536
 20
164.927
 11
114.627
 21
164.953
  0
LINE
  8
0
 10
114.627
 20
164.953
 11
114.719
 21
164.973
  0
LINE
  8
0
 10
114.719
 20
164.973
 11
114.812
 21
164.988
  0
LINE
  8
0
 10
114.812
 20
164.988
 11
114.906
 21
164.997
  0
LINE
  8
0
 10
114.906
 20
164.997
 11
115
 21
165
  0
LINE
  8
0
 10
115
 20
165
 11
115.094
 21
164.997
  0
LINE
  8
0
 10
115.094
 20
164.997
 11
115.188
 21
164.988
  0
LINE
  8
0
 10
115.188
 20
164.988
 11
115.281
 21
164.973
  0
LINE
  8
0
 10
115.281
 20
164.973
 11
115.373
 21
164.953
  0
LINE
  8
0
 10
115.373
 20
164.953
 11
115.464
 21
164.927
  0
LINE
  8
0
 10
115.464
 20
164.927
 11
115.552
 21
164.895
  0
LINE
  8
0
 10
115.552
 20
164.895
 11
115.639
 21
164.857
  0
LINE
  8
0
 10
115.639
 20
164.857
 11
115.723
 21
164.814
  0
LINE
  8
0
 10
115.723
 20
164.814
 11
115.804
 21
164.766
  0
LINE
  8
0
 10
115.804
 20
164.766
 11
115.882
 21
164.714
  0
LINE
  8
0
 10
115.882
 20
164.714
 11
115.956
 21
164.656
  0
LINE
  8
0
 10
115.956
 20
164.656
 11
116.027
 21
164.593
  0
LINE
  8
0
 10
116.027
 20
164.593
 11
116.093
 21
164.527
  0
LINE
  8
0
 10
116.093
 20
164.527
 11
116.156
 21
164.456
  0
LINE
  8
0
 10
116.156
 20
164.456
 11
116.214
 21
164.382
  0
LINE
  8
0
 10
116.214
 20
164.382
 11
116.266
 21
164.304
  0
LINE
  8
0
 10
116.266
 20
164.304
 11
116.314
 21
164.223
  0
LINE
  8
0
 10
116.314
 20
164.223
 11
116.357
 21
164.139
  0
LINE
  8
0
 10
116.357
 20
164.139
 11
116.395
 21
164.052
  0
LINE
  8
0
 10
116.395
 20
164.052
 11
116.427
 21
163.964
  0
LINE
  8
0
 10
116.427
 20
163.964
 11
116.453
 21
163.873
  0
LINE
  8
0
 10
116.453
 20
163.873
 11
116.473
 21
163.781
  0
LINE
  8
0
 10
116.473
 20
163.781
 11
116.488
 21
163.688
  0
LINE
  8
0
 10
116.488
 20
163.688
 11
116.497
 21
163.594
  0
LINE
  8
0
 10
116.497
 20
163.594
 11
116.5
 21
163.5
  0
LINE
  8
0
 10
116.5
 20
163.5
 11
116.497
 21
163.406
  0
LINE
  8
0
 10
116.497
 20
163.406
 11
116.488
 21
163.312
  0
LINE
  8
0
 10
116.488
 20
163.312
 11
116.473
 21
163.219
  0
LINE
  8
0
 10
116.473
 20
163.219
 11
116.453
 21
163.127
  0
LINE
  8
0
 10
116.453
 20
163.127
 11
116.427
 21
163.036
  0
LINE
  8
0
 10
116.427
 20
163.036
 11
116.395
 21
162.948
  0
LINE
  8
0
 10
116.395
 20
162.948
 11
116.357
 21
162.861
  0
LINE
  8
0
 10
116.357
 20
162.861
 11
116.314
 21
162.777
  0
LINE
  8
0
 10
116.314
 20
162.777
 11
116.266
 21
162.696
  0
LINE
  8
0
 10
116.266
 20
162.696
 11
116.214
 21
162.618
  0
LINE
  8
0
 10
116.214
 20
162.618
 11
116.156
 21
162.544
  0
LINE
  8
0
 10
116.156
 20
162.544
 11
116.093
 21
162.473
  0
LINE
  8
0
 10
116.093
 20
162.473
 11
116.027
 21
162.407
  0
LINE
  8
0
 10
116.027
 20
162.407
 11
115.956
 21
162.344
  0
LINE
  8
0
 10
115.956
 20
162.344
 11
115.882
 21
162.286
  0
LINE
  8
0
 10
115.882
 20
162.286
 11
115.804
 21
162.234
  0
LINE
  8
0
 10
115.804
 20
162.234
 11
115.723
 21
162.186
  0
LINE
  8
0
 10
115.723
 20
162.186
 11
115.639
 21
162.143
  0
LINE
  8
0
 10
115.639
 20
162.143
 11
115.552
 21
162.105
  0
LINE
  8
0
 10
115.552
 20
162.105
 11
115.464
 21
162.073
  0
LINE
  8
0
 10
115.464
 20
162.073
 11
115.373
 21
162.047
  0
LINE
  8
0
 10
115.373
 20
162.047
 11
115.281
 21
162.027
  0
LINE
  8
0
 10
115.281
 20
162.027
 11
115.188
 21
162.012
  0
LINE
  8
0
 10
115.188
 20
162.012
 11
115.094
 21
162.003
  0
LINE
  8
0
 10
115.094
 20
162.003
 11
115
 21
162
  0
LINE
  8
0
 10
115
 20
162
 11
114.906
 21
162.003
  0
LINE
  8
0
 10
45.5582
 20
125.53
 11
44.62
 21
125.618
  0
LINE
  8
0
 10
44.62
 20
125.618
 11
43.6893
 21
125.766
  0
LINE
  8
0
 10
43.6893
 20
125.766
 11
42.7697
 21
125.971
  0
LINE
  8
0
 10
42.7697
 20
125.971
 11
41.8647
 21
126.234
  0
LINE
  8
0
 10
41.8647
 20
126.234
 11
40.9781
 21
126.553
  0
LINE
  8
0
 10
40.9781
 20
126.553
 11
40.1133
 21
126.928
  0
LINE
  8
0
 10
40.1133
 20
126.928
 11
39.2737
 21
127.355
  0
LINE
  8
0
 10
39.2737
 20
127.355
 11
38.4626
 21
127.835
  0
LINE
  8
0
 10
38.4626
 20
127.835
 11
37.6832
 21
128.365
  0
LINE
  8
0
 10
37.6832
 20
128.365
 11
36.9386
 21
128.942
  0
LINE
  8
0
 10
36.9386
 20
128.942
 11
36.2318
 21
129.565
  0
LINE
  8
0
 10
36.2318
 20
129.565
 11
35.5655
 21
130.232
  0
LINE
  8
0
 10
35.5655
 20
130.232
 11
34.9423
 21
130.939
  0
LINE
  8
0
 10
34.9423
 20
130.939
 11
34.3647
 21
131.683
  0
LINE
  8
0
 10
34.3647
 20
131.683
 11
33.8351
 21
132.463
  0
LINE
  8
0
 10
33.8351
 20
132.463
 11
33.3554
 21
133.274
  0
LINE
  8
0
 10
33.3554
 20
133.274
 11
32.9276
 21
134.113
  0
LINE
  8
0
 10
32.9276
 20
134.113
 11
32.5534
 21
134.978
  0
LINE
  8
0
 10
32.5534
 20
134.978
 11
32.2342
 21
135.865
  0
LINE
  8
0
 10
32.2342
 20
135.865
 11
31.9713
 21
136.77
  0
LINE
  8
0
 10
31.9713
 20
136.77
 11
31.7657
 21
137.689
  0
LINE
  8
0
 10
31.7657
 20
137.689
 11
31.6183
 21
138.62
  0
LINE
  8
0
 10
31.6183
 20
138.62
 11
31.5296
 21
139.558
  0
LINE
  8
0
 10
31.5296
 20
139.558
 11
31.5
 21
140.5
  0
LINE
  8
0
 10
31.5
 20
140.5
 11
31.5296
 21
141.442
  0
LINE
  8
0
 10
31.5296
 20
141.442
 11
31.6183
 21
142.38
  0
LINE
  8
0
 10
31.6183
 20
142.38
 11
31.7657
 21
143.311
  0
LINE
  8
0
 10
31.7657
 20
143.311
 11
31.9713
 21
144.23
  0
LINE
  8
0
 10
31.9713
 20
144.23
 11
32.2342
 21
145.135
  0
LINE
  8
0
 10
32.2342
 20
145.135
 11
32.5534
 21
146.022
  0
LINE
  8
0
 10
32.5534
 20
146.022
 11
32.9276
 21
146.887
  0
LINE
  8
0
 10
32.9276
 20
146.887
 11
33.3554
 21
147.726
  0
LINE
  8
0
 10
33.3554
 20
147.726
 11
33.8351
 21
148.537
  0
LINE
  8
0
 10
33.8351
 20
148.537
 11
34.3647
 21
149.317
  0
LINE
  8
0
 10
34.3647
 20
149.317
 11
34.9423
 21
150.061
  0
LINE
  8
0
 10
34.9423
 20
150.061
 11
35.5655
 21
150.768
  0
LINE
  8
0
 10
35.5655
 20
150.768
 11
36.2318
 21
151.435
  0
LINE
  8
0
 10
36.2318
 20
151.435
 11
36.9386
 21
152.058
  0
LINE
  8
0
 10
36.9386
 20
152.058
 11
37.6832
 21
152.635
  0
LINE
  8
0
 10
37.6832
 20
152.635
 11
38.4626
 21
153.165
  0
LINE
  8
0
 10
38.4626
 20
153.165
 11
39.2737
 21
153.645
  0
LINE
  8
0
 10
39.2737
 20
153.645
 11
40.1133
 21
154.072
  0
LINE
  8
0
 10
40.1133
 20
154.072
 11
40.9781
 21
154.447
  0
LINE
  8
0
 10
40.9781
 20
154.447
 11
41.8647
 21
154.766
  0
LINE
  8
0
 10
41.8647
 20
154.766
 11
42.7697
 21
155.029
  0
LINE
  8
0
 10
42.7697
 20
155.029
 11
43.6893
 21
155.234
  0
LINE
  8
0
 10
43.6893
 20
155.234
 11
44.62
 21
155.382
  0
LINE
  8
0
 10
44.62
 20
155.382
 11
45.5582
 21
155.47
  0
LINE
  8
0
 10
45.5582
 20
155.47
 11
46.5
 21
155.5
  0
LINE
  8
0
 10
46.5
 20
155.5
 11
47.4418
 21
155.47
  0
LINE
  8
0
 10
47.4418
 20
155.47
 11
48.38
 21
155.382
  0
LINE
  8
0
 10
48.38
 20
155.382
 11
49.3107
 21
155.234
  0
LINE
  8
0
 10
49.3107
 20
155.234
 11
50.2303
 21
155.029
  0
LINE
  8
0
 10
50.2303
 20
155.029
 11
51.1353
 21
154.766
  0
LINE
  8
0
 10
51.1353
 20
154.766
 11
52.0219
 21
154.447
  0
LINE
  8
0
 10
52.0219
 20
154.447
 11
52.8867
 21
154.072
  0
LINE
  8
0
 10
52.8867
 20
154.072
 11
53.7263
 21
153.645
  0
LINE
  8
0
 10
53.7263
 20
153.645
 11
54.5374
 21
153.165
  0
LINE
  8
0
 10
54.5374
 20
153.165
 11
55.3168
 21
152.635
  0
LINE
  8
0
 10
55.3168
 20
152.635
 11
56.0614
 21
152.058
  0
LINE
  8
0
 10
56.0614
 20
152.058
 11
56.7682
 21
151.435
  0
LINE
  8
0
 10
56.7682
 20
151.435
 11
57.4345
 21
150.768
  0
LINE
  8
0
 10
57.4345
 20
150.768
 11
58.0577
 21
150.061
  0
LINE
  8
0
 10
58.0577
 20
150.061
 11
58.6353
 21
149.317
  0
LINE
  8
0
 10
58.6353
 20
149.317
 11
59.1649
 21
148.537
  0
LINE
  8
0
 10
59.1649
 20
148.537
 11
59.6446
 21
147.726
  0
LINE
  8
0
 10
59.6446
 20
147.726
 11
60.0724
 21
146.887
  0
LINE
  8
0
 10
60.0724
 20
146.887
 11
60.4466
 21
146.022
  0
LINE
  8
0
 10
60.4466
 20
146.022
 11
60.7658
 21
145.135
  0
LINE
  8
0
 10
60.7658
 20
145.135
 11
61.0287
 21
144.23
  0
LINE
  8
0
 10
61.0287
 20
144.23
 11
61.2343
 21
143.311
  0
LINE
  8
0
 10
61.2343
 20
143.311
 11
61.3817
 21
142.38
  0
LINE
  8
0
 10
61.3817
 20
142.38
 11
61.4704
 21
141.442
  0
LINE
  8
0
 10
61.4704
 20
141.442
 11
61.5
 21
140.5
  0
LINE
  8
0
 10
61.5
 20
140.5
 11
61.4704
 21
139.558
  0
LINE
  8
0
 10
61.4704
 20
139.558
 11
61.3817
 21
138.62
  0
LINE
  8
0
 10
61.3817
 20
138.62
 11
61.2343
 21
137.689
  0
LINE
  8
0
 10
61.2343
 20
137.689
 11
61.0287
 21
136.77
  0
LINE
  8
0
 10
61.0287
 20
136.77
 11
60.7658
 21
135.865
  0
LINE
  8
0
 10
60.7658
 20
135.865
 11
60.4466
 21
134.978
  0
LINE
  8
0
 10
60.4466
 20
134.978
 11
60.0724
 21
134.113
  0
LINE
  8
0
 10
60.0724
 20
134.113
 11
59.6446
 21
133.274
  0
LINE
  8
0
 10
59.6446
 20
133.274
 11
59.1649
 21
132.463
  0
LINE
  8
0
 10
59.1649
 20
132.463
 11
58.6353
 21
131.683
  0
LINE
  8
0
 10
58.6353
 20
131.683
 11
58.0577
 21
130.939
  0
LINE
  8
0
 10
58.0577
 20
130.939
 11
57.4345
 21
130.232
  0
LINE
  8
0
 10
57.4345
 20
130.232
 11
56.7682
 21
129.565
  0
LINE
  8
0
 10
56.7682
 20
129.565
 11
56.0614
 21
128.942
  0
LINE
  8
0
 10
56.0614
 20
128.942
 11
55.3168
 21
128.365
  0
LINE
  8
0
 10
55.3168
 20
128.365
 11
54.5374
 21
127.835
  0
LINE
  8
0
 10
54.5374
 20
127.835
 11
53.7263
 21
127.355
  0
LINE
  8
0
 10
53.7263
 20
127.355
 11
52.8867
 21
126.928
  0
LINE
  8
0
 10
52.8867
 20
126.928
 11
52.0219
 21
126.553
  0
LINE
  8
0
 10
52.0219
 20
126.553
 11
51.1353
 21
126.234
  0
LINE
  8
0
 10
51.1353
 20
126.234
 11
50.2303
 21
125.971
  0
LINE
  8
0
 10
50.2303
 20
125.971
 11
49.3107
 21
125.766
  0
LINE
  8
0
 10
49.3107
 20
125.766
 11
48.38
 21
125.618
  0
LINE
  8
0
 10
48.38
 20
125.618
 11
47.4418
 21
125.53
  0
LINE
  8
0
 10
47.4418
 20
125.53
 11
46.5
 21
125.5
  0
LINE
  8
0
 10
46.5
 20
125.5
 11
45.5582
 21
125.53
  0
LINE
  8
0
 10
95.5581
 20
125.53
 11
94.62
 21
125.618
  0
LINE
  8
0
 10
94.62
 20
125.618
 11
93.6893
 21
125.766
  0
LINE
  8
0
 10
93.6893
 20
125.766
 11
92.7696
 21
125.971
  0
LINE
  8
0
 10
92.7696
 20
125.971
 11
91.8647
 21
126.234
  0
LINE
  8
0
 10
91.8647
 20
126.234
 11
90.9781
 21
126.553
  0
LINE
  8
0
 10
90.9781
 20
126.553
 11
90.1133
 21
126.928
  0
LINE
  8
0
 10
90.1133
 20
126.928
 11
89.2737
 21
127.355
  0
LINE
  8
0
 10
89.2737
 20
127.355
 11
88.4626
 21
127.835
  0
LINE
  8
0
 10
88.4626
 20
127.835
 11
87.6832
 21
128.365
  0
LINE
  8
0
 10
87.6832
 20
128.365
 11
86.9386
 21
128.942
  0
LINE
  8
0
 10
86.9386
 20
128.942
 11
86.2318
 21
129.565
  0
LINE
  8
0
 10
86.2318
 20
129.565
 11
85.5655
 21
130.232
  0
LINE
  8
0
 10
85.5655
 20
130.232
 11
84.9423
 21
130.939
  0
LINE
  8
0
 10
84.9423
 20
130.939
 11
84.3647
 21
131.683
  0
LINE
  8
0
 10
84.3647
 20
131.683
 11
83.8351
 21
132.463
  0
LINE
  8
0
 10
83.8351
 20
132.463
 11
83.3554
 21
133.274
  0
LINE
  8
0
 10
83.3554
 20
133.274
 11
82.9276
 21
134.113
  0
LINE
  8
0
 10
82.9276
 20
134.113
 11
82.5533
 21
134.978
  0
LINE
  8
0
 10
82.5533
 20
134.978
 11
82.2341
 21
135.865
  0
LINE
  8
0
 10
82.2341
 20
135.865
 11
81.9713
 21
136.77
  0
LINE
  8
0
 10
81.9713
 20
136.77
 11
81.7657
 21
137.689
  0
LINE
  8
0
 10
81.7657
 20
137.689
 11
81.6183
 21
138.62
  0
LINE
  8
0
 10
81.6183
 20
138.62
 11
81.5296
 21
139.558
  0
LINE
  8
0
 10
81.5296
 20
139.558
 11
81.5
 21
140.5
  0
LINE
  8
0
 10
81.5
 20
140.5
 11
81.5296
 21
141.442
  0
LINE
  8
0
 10
81.5296
 20
141.442
 11
81.6183
 21
142.38
  0
LINE
  8
0
 10
81.6183
 20
142.38
 11
81.7657
 21
143.311
  0
LINE
  8
0
 10
81.7657
 20
143.311
 11
81.9713
 21
144.23
  0
LINE
  8
0
 10
81.9713
 20
144.23
 11
82.2341
 21
145.135
  0
LINE
  8
0
 10
82.2341
 20
145.135
 11
82.5533
 21
146.022
  0
LINE
  8
0
 10
82.5533
 20
146.022
 11
82.9276
 21
146.887
  0
LINE
  8
0
 10
82.9276
 20
146.887
 11
83.3554
 21
147.726
  0
LINE
  8
0
 10
83.3554
 20
147.726
 11
83.8351
 21
148.537
  0
LINE
  8
0
 10
83.8351
 20
148.537
 11
84.3647
 21
149.317
  0
LINE
  8
0
 10
84.3647
 20
149.317
 11
84.9423
 21
150.061
  0
LINE
  8
0
 10
84.9423
 20
150.061
 11
85.5655
 21
150.768
  0
LINE
  8
0
 10
85.5655
 20
150.768
 11
86.2318
 21
151.435
  0
LINE
  8
0
 10
86.2318
 20
151.435
 11
86.9386
 21
152.058
  0
LINE
  8
0
 10
86.9386
 20
152.058
 11
87.6832
 21
152.635
  0
LINE
  8
0
 10
87.6832
 20
152.635
 11
88.4626
 21
153.165
  0
LINE
  8
0
 10
88.4626
 20
153.165
 11
89.2737
 21
153.645
  0
LINE
  8
0
 10
89.2737
 20
153.645
 11
90.1133
 21
154.072
  0
LINE
  8
0
 10
90.1133
 20
154.072
 11
90.9781
 21
154.447
  0
LINE
  8
0
 10
90.9781
 20
154.447
 11
91.8647
 21
154.766
  0
LINE
  8
0
 10
91.8647
 20
154.766
 11
92.7696
 21
155.029
  0
LINE
  8
0
 10
92.7696
 20
155.029
 11
93.6893
 21
155.234
  0
LINE
  8
0
 10
93.6893
 20
155.234
 11
94.62
 21
155.382
  0
LINE
  8
0
 10
94.62
 20
155.382
 11
95.5581
 21
155.47
  0
LINE
  8
0
 10
95.5581
 20
155.47
 11
96.5
 21
155.5
  0
LINE
  8
0
 10
96.5
 20
155.5
 11
97.4418
 21
155.47
  0
LINE
  8
0
 10
97.4418
 20
155.47
 11
98.38
 21
155.382
  0
LINE
  8
0
 10
98.38
 20
155.382
 11
99.3107
 21
155.234
  0
LINE
  8
0
 10
99.3107
 20
155.234
 11
100.23
 21
155.029
  0
LINE
  8
0
 10
100.23
 20
155.029
 11
101.135
 21
154.766
  0
LINE
  8
0
 10
101.135
 20
154.766
 11
102.022
 21
154.447
  0
LINE
  8
0
 10
102.022
 20
154.447
 11
102.887
 21
154.072
  0
LINE
  8
0
 10
102.887
 20
154.072
 11
103.726
 21
153.645
  0
LINE
  8
0
 10
103.726
 20
153.645
 11
104.537
 21
153.165
  0
LINE
  8
0
 10
104.537
 20
153.165
 11
105.317
 21
152.635
  0
LINE
  8
0
 10
105.317
 20
152.635
 11
106.061
 21
152.058
  0
LINE
  8
0
 10
106.061
 20
152.058
 11
106.768
 21
151.435
  0
LINE
  8
0
 10
106.768
 20
151.435
 11
107.435
 21
150.768
  0
LINE
  8
0
 10
107.435
 20
150.768
 11
108.058
 21
150.061
  0
LINE
  8
0
 10
108.058
 20
150.061
 11
108.635
 21
149.317
  0
LINE
  8
0
 10
108.635
 20
149.317
 11
109.165
 21
148.537
  0
LINE
  8
0
 10
109.165
 20
148.537
 11
109.645
 21
147.726
  0
LINE
  8
0
 10
109.645
 20
147.726
 11
110.072
 21
146.887
  0
LINE
  8
0
 10
110.072
 20
146.887
 11
110.447
 21
146.022
  0
LINE
  8
0
 10
110.447
 20
146.022
 11
110.766
 21
145.135
  0
LINE
  8
0
 10
110.766
 20
145.135
 11
111.029
 21
144.23
  0
LINE
  8
0
 10
111.029
 20
144.23
 11
111.234
 21
143.311
  0
LINE
  8
0
 10
111.234
 20
143.311
 11
111.382
 21
142.38
  0
LINE
  8
0
 10
111.382
 20
142.38
 11
111.47
 21
141.442
  0
LINE
  8
0
 10
111.47
 20
141.442
 11
111.5
 21
140.5
  0
LINE
  8
0
 10
111.5
 20
140.5
 11
111.47
 21
139.558
  0
LINE
  8
0
 10
111.47
 20
139.558
 11
111.382
 21
138.62
  0
LINE
  8
0
 10
111.382
 20
138.62
 11
111.234
 21
137.689
  0
LINE
  8
0
 10
111.234
 20
137.689
 11
111.029
 21
136.77
  0
LINE
  8
0
 10
111.029
 20
136.77
 11
110.766
 21
135.865
  0
LINE
  8
0
 10
110.766
 20
135.865
 11
110.447
 21
134.978
  0
LINE
  8
0
 10
110.447
 20
134.978
 11
110.072
 21
134.113
  0
LINE
  8
0
 10
110.072
 20
134.113
 11
109.645
 21
133.274
  0
LINE
  8
0
 10
109.645
 20
133.274
 11
109.165
 21
132.463
  0
LINE
  8
0
 10
109.165
 20
132.463
 11
108.635
 21
131.683
  0
LINE
  8
0
 10
108.635
 20
131.683
 11
108.058
 21
130.939
  0
LINE
  8
0
 10
108.058
 20
130.939
 11
107.435
 21
130.232
  0
LINE
  8
0
 10
107.435
 20
130.232
 11
106.768
 21
129.565
  0
LINE
  8
0
 10
106.768
 20
129.565
 11
106.061
 21
128.942
  0
LINE
  8
0
 10
106.061
 20
128.942
 11
105.317
 21
128.365
  0
LINE
  8
0
 10
105.317
 20
128.365
 11
104.537
 21
127.835
  0
LINE
  8
0
 10
104.537
 20
127.835
 11
103.726
 21
127.355
  0
LINE
  8
0
 10
103.726
 20
127.355
 11
102.887
 21
126.928
  0
LINE
  8
0
 10
102.887
 20
126.928
 11
102.022
 21
126.553
  0
LINE
  8
0
 10
102.022
 20
126.553
 11
101.135
 21
126.234
  0
LINE
  8
0
 10
101.135
 20
126.234
 11
100.23
 21
125.971
  0
LINE
  8
0
 10
100.23
 20
125.971
 11
99.3107
 21
125.766
  0
LINE
  8
0
 10
99.3107
 20
125.766
 11
98.38
 21
125.618
  0
LINE
  8
0
 10
98.38
 20
125.618
 11
97.4418
 21
125.53
  0
LINE
  8
0
 10
97.4418
 20
125.53
 11
96.5
 21
125.5
  0
LINE
  8
0
 10
96.5
 20
125.5
 11
95.5581
 21
125.53
  0
LINE
  8
0
 10
145.756
 20
128.673
 11
145.015
 21
128.743
  0
LINE
  8
0
 10
145.015
 20
128.743
 11
144.28
 21
128.86
  0
LINE
  8
0
 10
144.28
 20
128.86
 11
143.553
 21
129.022
  0
LINE
  8
0
 10
143.553
 20
129.022
 11
142.838
 21
129.23
  0
LINE
  8
0
 10
142.838
 20
129.23
 11
142.138
 21
129.482
  0
LINE
  8
0
 10
142.138
 20
129.482
 11
141.455
 21
129.778
  0
LINE
  8
0
 10
141.455
 20
129.778
 11
140.791
 21
130.116
  0
LINE
  8
0
 10
140.791
 20
130.116
 11
140.15
 21
130.495
  0
LINE
  8
0
 10
140.15
 20
130.495
 11
139.535
 21
130.913
  0
LINE
  8
0
 10
139.535
 20
130.913
 11
138.947
 21
131.369
  0
LINE
  8
0
 10
138.947
 20
131.369
 11
138.388
 21
131.862
  0
LINE
  8
0
 10
138.388
 20
131.862
 11
137.862
 21
132.388
  0
LINE
  8
0
 10
137.862
 20
132.388
 11
137.369
 21
132.947
  0
LINE
  8
0
 10
137.369
 20
132.947
 11
136.913
 21
133.535
  0
LINE
  8
0
 10
136.913
 20
133.535
 11
136.495
 21
134.15
  0
LINE
  8
0
 10
136.495
 20
134.15
 11
136.116
 21
134.791
  0
LINE
  8
0
 10
136.116
 20
134.791
 11
135.778
 21
135.455
  0
LINE
  8
0
 10
135.778
 20
135.455
 11
135.482
 21
136.138
  0
LINE
  8
0
 10
135.482
 20
136.138
 11
135.23
 21
136.838
  0
LINE
  8
0
 10
135.23
 20
136.838
 11
135.022
 21
137.553
  0
LINE
  8
0
 10
135.022
 20
137.553
 11
134.86
 21
138.28
  0
LINE
  8
0
 10
134.86
 20
138.28
 11
134.743
 21
139.015
  0
LINE
  8
0
 10
134.743
 20
139.015
 11
134.673
 21
139.756
  0
LINE
  8
0
 10
134.673
 20
139.756
 11
134.65
 21
140.5
  0
LINE
  8
0
 10
134.65
 20
140.5
 11
134.673
 21
141.244
  0
LINE
  8
0
 10
134.673
 20
141.244
 11
134.743
 21
141.985
  0
LINE
  8
0
 10
134.743
 20
141.985
 11
134.86
 21
142.72
  0
LINE
  8
0
 10
134.86
 20
142.72
 11
135.022
 21
143.447
  0
LINE
  8
0
 10
135.022
 20
143.447
 11
135.23
 21
144.162
  0
LINE
  8
0
 10
135.23
 20
144.162
 11
135.482
 21
144.862
  0
LINE
  8
0
 10
135.482
 20
144.862
 11
135.778
 21
145.545
  0
LINE
  8
0
 10
135.778
 20
145.545
 11
136.116
 21
146.209
  0
LINE
  8
0
 10
136.116
 20
146.209
 11
136.495
 21
146.85
  0
LINE
  8
0
 10
136.495
 20
146.85
 11
136.913
 21
147.465
  0
LINE
  8
0
 10
136.913
 20
147.465
 11
137.369
 21
148.053
  0
LINE
  8
0
 10
137.369
 20
148.053
 11
137.862
 21
148.612
  0
LINE
  8
0
 10
137.862
 20
148.612
 11
138.388
 21
149.138
  0
LINE
  8
0
 10
138.388
 20
149.138
 11
138.947
 21
149.631
  0
LINE
  8
0
 10
138.947
 20
149.631
 11
139.535
 21
150.087
  0
LINE
  8
0
 10
139.535
 20
150.087
 11
140.15
 21
150.505
  0
LINE
  8
0
 10
140.15
 20
150.505
 11
140.791
 21
150.884
  0
LINE
  8
0
 10
140.791
 20
150.884
 11
141.455
 21
151.222
  0
LINE
  8
0
 10
141.455
 20
151.222
 11
142.138
 21
151.518
  0
LINE
  8
0
 10
142.138
 20
151.518
 11
142.838
 21
151.77
  0
LINE
  8
0
 10
142.838
 20
151.77
 11
143.553
 21
151.978
  0
LINE
  8
0
 10
143.553
 20
151.978
 11
144.28
 21
152.14
  0
LINE
  8
0
 10
144.28
 20
152.14
 11
145.015
 21
152.257
  0
LINE
  8
0
 10
145.015
 20
152.257
 11
145.756
 21
152.327
  0
LINE
  8
0
 10
145.756
 20
152.327
 11
146.5
 21
152.35
  0
LINE
  8
0
 10
146.5
 20
152.35
 11
147.244
 21
152.327
  0
LINE
  8
0
 10
147.244
 20
152.327
 11
147.985
 21
152.257
  0
LINE
  8
0
 10
147.985
 20
152.257
 11
148.72
 21
152.14
  0
LINE
  8
0
 10
148.72
 20
152.14
 11
149.447
 21
151.978
  0
LINE
  8
0
 10
149.447
 20
151.978
 11
150.162
 21
151.77
  0
LINE
  8
0
 10
150.162
 20
151.77
 11
150.862
 21
151.518
  0
LINE
  8
0
 10
150.862
 20
151.518
 11
151.545
 21
151.222
  0
LINE
  8
0
 10
151.545
 20
151.222
 11
152.209
 21
150.884
  0
LINE
  8
0
 10
152.209
 20
150.884
 11
152.85
 21
150.505
  0
LINE
  8
0
 10
152.85
 20
150.505
 11
153.465
 21
150.087
  0
LINE
  8
0
 10
153.465
 20
150.087
 11
154.053
 21
149.631
  0
LINE
  8
0
 10
154.053
 20
149.631
 11
154.612
 21
149.138
  0
LINE
  8
0
 10
154.612
 20
149.138
 11
155.138
 21
148.612
  0
LINE
  8
0
 10
155.138
 20
148.612
 11
155.631
 21
148.053
  0
LINE
  8
0
 10
155.631
 20
148.053
 11
156.087
 21
147.465
  0
LINE
  8
0
 10
156.087
 20
147.465
 11
156.505
 21
146.85
  0
LINE
  8
0
 10
156.505
 20
146.85
 11
156.884
 21
146.209
  0
LINE
  8
0
 10
156.884
 20
146.209
 11
157.222
 21
145.545
  0
LINE
  8
0
 10
157.222
 20
145.545
 11
157.518
 21
144.862
  0
LINE
  8
0
 10
157.518
 20
144.862
 11
157.77
 21
144.162
  0
LINE
  8
0
 10
157.77
 20
144.162
 11
157.978
 21
143.447
  0
LINE
  8
0
 10
157.978
 20
143.447
 11
158.14
 21
142.72
  0
LINE
  8
0
 10
158.14
 20
142.72
 11
158.257
 21
141.985
  0
LINE
  8
0
 10
158.257
 20
141.985
 11
158.327
 21
141.244
  0
LINE
  8
0
 10
158.327
 20
141.244
 11
158.35
 21
140.5
  0
LINE
  8
0
 10
158.35
 20
140.5
 11
158.327
 21
139.756
  0
LINE
  8
0
 10
158.327
 20
139.756
 11
158.257
 21
139.015
  0
LINE
  8
0
 10
158.257
 20
139.015
 11
158.14
 21
138.28
  0
LINE
  8
0
 10
158.14
 20
138.28
 11
157.978
 21
137.553
  0
LINE
  8
0
 10
157.978
 20
137.553
 11
157.77
 21
136.838
  0
LINE
  8
0
 10
157.77
 20
136.838
 11
157.518
 21
136.138
  0
LINE
  8
0
 10
157.518
 20
136.138
 11
157.222
 21
135.455
  0
LINE
  8
0
 10
157.222
 20
135.455
 11
156.884
 21
134.791
  0
LINE
  8
0
 10
156.884
 20
134.791
 11
156.505
 21
134.15
  0
LINE
  8
0
 10
156.505
 20
134.15
 11
156.087
 21
133.535
  0
LINE
  8
0
 10
156.087
 20
133.535
 11
155.631
 21
132.947
  0
LINE
  8
0
 10
155.631
 20
132.947
 11
155.138
 21
132.388
  0
LINE
  8
0
 10
155.138
 20
132.388
 11
154.612
 21
131.862
  0
LINE
  8
0
 10
154.612
 20
131.862
 11
154.053
 21
131.369
  0
LINE
  8
0
 10
154.053
 20
131.369
 11
153.465
 21
130.913
  0
LINE
  8
0
 10
153.465
 20
130.913
 11
152.85
 21
130.495
  0
LINE
  8
0
 10
152.85
 20
130.495
 11
152.209
 21
130.116
  0
LINE
  8
0
 10
152.209
 20
130.116
 11
151.545
 21
129.778
  0
LINE
  8
0
 10
151.545
 20
129.778
 11
150.862
 21
129.482
  0
LINE
  8
0
 10
150.862
 20
129.482
 11
150.162
 21
129.23
  0
LINE
  8
0
 10
150.162
 20
129.23
 11
149.447
 21
129.022
  0
LINE
  8
0
 10
149.447
 20
129.022
 11
148.72
 21
128.86
  0
LINE
  8
0
 10
148.72
 20
128.86
 11
147.985
 21
128.743
  0
LINE
  8
0
 10
147.985
 20
128.743
 11
147.244
 21
128.673
  0
LINE
  8
0
 10
147.244
 20
128.673
 11
146.5
 21
128.65
  0
LINE
  8
0
 10
146.5
 20
128.65
 11
145.756
 21
128.673
  0
LINE
  8
0
 10
195.756
 20
128.673
 11
195.015
 21
128.743
  0
LINE
  8
0
 10
195.015
 20
128.743
 11
194.28
 21
128.86
  0
LINE
  8
0
 10
194.28
 20
128.86
 11
193.553
 21
129.022
  0
LINE
  8
0
 10
193.553
 20
129.022
 11
192.838
 21
129.23
  0
LINE
  8
0
 10
192.838
 20
129.23
 11
192.138
 21
129.482
  0
LINE
  8
0
 10
192.138
 20
129.482
 11
191.455
 21
129.778
  0
LINE
  8
0
 10
191.455
 20
129.778
 11
190.791
 21
130.116
  0
LINE
  8
0
 10
190.791
 20
130.116
 11
190.15
 21
130.495
  0
LINE
  8
0
 10
190.15
 20
130.495
 11
189.535
 21
130.913
  0
LINE
  8
0
 10
189.535
 20
130.913
 11
188.947
 21
131.369
  0
LINE
  8
0
 10
188.947
 20
131.369
 11
188.388
 21
131.862
  0
LINE
  8
0
 10
188.388
 20
131.862
 11
187.862
 21
132.388
  0
LINE
  8
0
 10
187.862
 20
132.388
 11
187.369
 21
132.947
  0
LINE
  8
0
 10
187.369
 20
132.947
 11
186.913
 21
133.535
  0
LINE
  8
0
 10
186.913
 20
133.535
 11
186.495
 21
134.15
  0
LINE
  8
0
 10
186.495
 20
134.15
 11
186.116
 21
134.791
  0
LINE
  8
0
 10
186.116
 20
134.791
 11
185.778
 21
135.455
  0
LINE
  8
0
 10
185.778
 20
135.455
 11
185.482
 21
136.138
  0
LINE
  8
0
 10
185.482
 20
136.138
 11
185.23
 21
136.838
  0
LINE
  8
0
 10
185.23
 20
136.838
 11
185.022
 21
137.553
  0
LINE
  8
0
 10
185.022
 20
137.553
 11
184.86
 21
138.28
  0
LINE
  8
0
 10
184.86
 20
138.28
 11
184.743
 21
139.015
  0
LINE
  8
0
 10
184.743
 20
139.015
 11
184.673
 21
139.756
  0
LINE
  8
0
 10
184.673
 20
139.756
 11
184.65
 21
140.5
  0
LINE
  8
0
 10
184.65
 20
140.5
 11
184.673
 21
141.244
  0
LINE
  8
0
 10
184.673
 20
141.244
 11
184.743
 21
141.985
  0
LINE
  8
0
 10
184.743
 20
141.985
 11
184.86
 21
142.72
  0
LINE
  8
0
 10
184.86
 20
142.72
 11
185.022
 21
143.447
  0
LINE
  8
0
 10
185.022
 20
143.447
 11
185.23
 21
144.162
  0
LINE
  8
0
 10
185.23
 20
144.162
 11
185.482
 21
144.862
  0
LINE
  8
0
 10
185.482
 20
144.862
 11
185.778
 21
145.545
  0
LINE
  8
0
 10
185.778
 20
145.545
 11
186.116
 21
146.209
  0
LINE
  8
0
 10
186.116
 20
146.209
 11
186.495
 21
146.85
  0
LINE
  8
0
 10
186.495
 20
146.85
 11
186.913
 21
147.465
  0
LINE
  8
0
 10
186.913
 20
147.465
 11
187.369
 21
148.053
  0
LINE
  8
0
 10
187.369
 20
148.053
 11
187.862
 21
148.612
  0
LINE
  8
0
 10
187.862
 20
148.612
 11
188.388
 21
149.138
  0
LINE
  8
0
 10
188.388
 20
149.138
 11
188.947
 21
149.631
  0
LINE
  8
0
 10
188.947
 20
149.631
 11
189.535
 21
150.087
  0
LINE
  8
0
 10
189.535
 20
150.087
 11
190.15
 21
150.505
  0
LINE
  8
0
 10
190.15
 20
150.505
 11
190.791
 21
150.884
  0
LINE
  8
0
 10
190.791
 20
150.884
 11
191.455
 21
151.222
  0
LINE
  8
0
 10
191.455
 20
151.222
 11
192.138
 21
151.518
  0
LINE
  8
0
 10
192.138
 20
151.518
 11
192.838
 21
151.77
  0
LINE
  8
0
 10
192.838
 20
151.77
 11
193.553
 21
151.978
  0
LINE
  8
0
 10
193.553
 20
151.978
 11
194.28
 21
152.14
  0
LINE
  8
0
 10
194.28
 20
152.14
 11
195.015
 21
152.257
  0
LINE
  8
0
 10
195.015
 20
152.257
 11
195.756
 21
152.327
  0
LINE
  8
0
 10
195.756
 20
152.327
 11
196.5
 21
152.35
  0
LINE
  8
0
 10
196.5
 20
152.35
 11
197.244
 21
152.327
  0
LINE
  8
0
 10
197.244
 20
152.327
 11
197.985
 21
152.257
  0
LINE
  8
0
 10
197.985
 20
152.257
 11
198.72
 21
152.14
  0
LINE
  8
0
 10
198.72
 20
152.14
 11
199.447
 21
151.978
  0
LINE
  8
0
 10
199.447
 20
151.978
 11
200.162
 21
151.77
  0
LINE
  8
0
 10
200.162
 20
151.77
 11
200.862
 21
151.518
  0
LINE
  8
0
 10
200.862
 20
151.518
 11
201.545
 21
151.222
  0
LINE
  8
0
 10
201.545
 20
151.222
 11
202.209
 21
150.884
  0
LINE
  8
0
 10
202.209
 20
150.884
 11
202.85
 21
150.505
  0
LINE
  8
0
 10
202.85
 20
150.505
 11
203.465
 21
150.087
  0
LINE
  8
0
 10
203.465
 20
150.087
 11
204.053
 21
149.631
  0
LINE
  8
0
 10
204.053
 20
149.631
 11
204.612
 21
149.138
  0
LINE
  8
0
 10
204.612
 20
149.138
 11
205.138
 21
148.612
  0
LINE
  8
0
 10
205.138
 20
148.612
 11
205.631
 21
148.053
  0
LINE
  8
0
 10
205.631
 20
148.053
 11
206.087
 21
147.465
  0
LINE
  8
0
 10
206.087
 20
147.465
 11
206.505
 21
146.85
  0
LINE
  8
0
 10
206.505
 20
146.85
 11
206.884
 21
146.209
  0
LINE
  8
0
 10
206.884
 20
146.209
 11
207.222
 21
145.545
  0
LINE
  8
0
 10
207.222
 20
145.545
 11
207.518
 21
144.862
  0
LINE
  8
0
 10
207.518
 20
144.862
 11
207.77
 21
144.162
  0
LINE
  8
0
 10
207.77
 20
144.162
 11
207.978
 21
143.447
  0
LINE
  8
0
 10
207.978
 20
143.447
 11
208.14
 21
142.72
  0
LINE
  8
0
 10
208.14
 20
142.72
 11
208.257
 21
141.985
  0
LINE
  8
0
 10
208.257
 20
141.985
 11
208.327
 21
141.244
  0
LINE
  8
0
 10
208.327
 20
141.244
 11
208.35
 21
140.5
  0
LINE
  8
0
 10
208.35
 20
140.5
 11
208.327
 21
139.756
  0
LINE
  8
0
 10
208.327
 20
139.756
 11
208.257
 21
139.015
  0
LINE
  8
0
 10
208.257
 20
139.015
 11
208.14
 21
138.28
  0
LINE
  8
0
 10
208.14
 20
138.28
 11
207.978
 21
137.553
  0
LINE
  8
0
 10
207.978
 20
137.553
 11
207.77
 21
136.838
  0
LINE
  8
0
 10
207.77
 20
136.838
 11
207.518
 21
136.138
  0
LINE
  8
0
 10
207.518
 20
136.138
 11
207.222
 21
135.455
  0
LINE
  8
0
 10
207.222
 20
135.455
 11
206.884
 21
134.791
  0
LINE
  8
0
 10
206.884
 20
134.791
 11
206.505
 21
134.15
  0
LINE
  8
0
 10
206.505
 20
134.15
 11
206.087
 21
133.535
  0
LINE
  8
0
 10
206.087
 20
133.535
 11
205.631
 21
132.947
  0
LINE
  8
0
 10
205.631
 20
132.947
 11
205.138
 21
132.388
  0
LINE
  8
0
 10
205.138
 20
132.388
 11
204.612
 21
131.862
  0
LINE
  8
0
 10
204.612
 20
131.862
 11
204.053
 21
131.369
  0
LINE
  8
0
 10
204.053
 20
131.369
 11
203.465
 21
130.913
  0
LINE
  8
0
 10
203.465
 20
130.913
 11
202.85
 21
130.495
  0
LINE
  8
0
 10
202.85
 20
130.495
 11
202.209
 21
130.116
  0
LINE
  8
0
 10
202.209
 20
130.116
 11
201.545
 21
129.778
  0
LINE
  8
0
 10
201.545
 20
129.778
 11
200.862
 21
129.482
  0
LINE
  8
0
 10
200.862
 20
129.482
 11
200.162
 21
129.23
  0
LINE
  8
0
 10
200.162
 20
129.23
 11
199.447
 21
129.022
  0
LINE
  8
0
 10
199.447
 20
129.022
 11
198.72
 21
128.86
  0
LINE
  8
0
 10
198.72
 20
128.86
 11
197.985
 21
128.743
  0
LINE
  8
0
 10
197.985
 20
128.743
 11
197.244
 21
128.673
  0
LINE
  8
0
 10
197.244
 20
128.673
 11
196.5
 21
128.65
  0
LINE
  8
0
 10
196.5
 20
128.65
 11
195.756
 21
128.673
  0
LINE
  8
0
 10
161.558
 20
83.5296
 11
160.62
 21
83.6183
  0
LINE
  8
0
 10
160.62
 20
83.6183
 11
159.689
 21
83.7657
  0
LINE
  8
0
 10
159.689
 20
83.7657
 11
158.77
 21
83.9713
  0
LINE
  8
0
 10
158.77
 20
83.9713
 11
157.865
 21
84.2341
  0
LINE
  8
0
 10
157.865
 20
84.2341
 11
156.978
 21
84.5533
  0
LINE
  8
0
 10
156.978
 20
84.5533
 11
156.113
 21
84.9276
  0
LINE
  8
0
 10
156.113
 20
84.9276
 11
155.274
 21
85.3554
  0
LINE
  8
0
 10
155.274
 20
85.3554
 11
154.463
 21
85.8351
  0
LINE
  8
0
 10
154.463
 20
85.8351
 11
153.683
 21
86.3647
  0
LINE
  8
0
 10
153.683
 20
86.3647
 11
152.939
 21
86.9423
  0
LINE
  8
0
 10
152.939
 20
86.9423
 11
152.232
 21
87.5655
  0
LINE
  8
0
 10
152.232
 20
87.5655
 11
151.565
 21
88.2318
  0
LINE
  8
0
 10
151.565
 20
88.2318
 11
150.942
 21
88.9386
  0
LINE
  8
0
 10
150.942
 20
88.9386
 11
150.365
 21
89.6832
  0
LINE
  8
0
 10
150.365
 20
89.6832
 11
149.835
 21
90.4626
  0
LINE
  8
0
 10
149.835
 20
90.4626
 11
149.355
 21
91.2737
  0
LINE
  8
0
 10
149.355
 20
91.2737
 11
148.928
 21
92.1133
  0
LINE
  8
0
 10
148.928
 20
92.1133
 11
148.553
 21
92.9781
  0
LINE
  8
0
 10
148.553
 20
92.9781
 11
148.234
 21
93.8647
  0
LINE
  8
0
 10
148.234
 20
93.8647
 11
147.971
 21
94.7696
  0
LINE
  8
0
 10
147.971
 20
94.7696
 11
147.766
 21
95.6893
  0
LINE
  8
0
 10
147.766
 20
95.6893
 11
147.618
 21
96.62
  0
LINE
  8
0
 10
147.618
 20
96.62
 11
147.53
 21
97.5581
  0
LINE
  8
0
 10
147.53
 20
97.5581
 11
147.5
 21
98.5
  0
LINE
  8
0
 10
147.5
 20
98.5
 11
147.53
 21
99.4418
  0
LINE
  8
0
 10
147.53
 20
99.4418
 11
147.618
 21
100.38
  0
LINE
  8
0
 10
147.618
 20
100.38
 11
147.766
 21
101.311
  0
LINE
  8
0
 10
147.766
 20
101.311
 11
147.971
 21
102.23
  0
LINE
  8
0
 10
147.971
 20
102.23
 11
148.234
 21
103.135
  0
LINE
  8
0
 10
148.234
 20
103.135
 11
148.553
 21
104.022
  0
LINE
  8
0
 10
148.553
 20
104.022
 11
148.928
 21
104.887
  0
LINE
  8
0
 10
148.928
 20
104.887
 11
149.355
 21
105.726
  0
LINE
  8
0
 10
149.355
 20
105.726
 11
149.835
 21
106.537
  0
LINE
  8
0
 10
149.835
 20
106.537
 11
150.365
 21
107.317
  0
LINE
  8
0
 10
150.365
 20
107.317
 11
150.942
 21
108.061
  0
LINE
  8
0
 10
150.942
 20
108.061
 11
151.565
 21
108.768
  0
LINE
  8
0
 10
151.565
 20
108.768
 11
152.232
 21
109.435
  0
LINE
  8
0
 10
152.232
 20
109.435
 11
152.939
 21
110.058
  0
LINE
  8
0
 10
152.939
 20
110.058
 11
153.683
 21
110.635
  0
LINE
  8
0
 10
153.683
 20
110.635
 11
154.463
 21
111.165
  0
LINE
  8
0
 10
154.463
 20
111.165
 11
155.274
 21
111.645
  0
LINE
  8
0
 10
155.274
 20
111.645
 11
156.113
 21
112.072
  0
LINE
  8
0
 10
156.113
 20
112.072
 11
156.978
 21
112.447
  0
LINE
  8
0
 10
156.978
 20
112.447
 11
157.865
 21
112.766
  0
LINE
  8
0
 10
157.865
 20
112.766
 11
158.77
 21
113.029
  0
LINE
  8
0
 10
158.77
 20
113.029
 11
159.689
 21
113.234
  0
LINE
  8
0
 10
159.689
 20
113.234
 11
160.62
 21
113.382
  0
LINE
  8
0
 10
160.62
 20
113.382
 11
161.558
 21
113.47
  0
LINE
  8
0
 10
161.558
 20
113.47
 11
162.5
 21
113.5
  0
LINE
  8
0
 10
162.5
 20
113.5
 11
163.442
 21
113.47
  0
LINE
  8
0
 10
163.442
 20
113.47
 11
164.38
 21
113.382
  0
LINE
  8
0
 10
164.38
 20
113.382
 11
165.311
 21
113.234
  0
LINE
  8
0
 10
165.311
 20
113.234
 11
166.23
 21
113.029
  0
LINE
  8
0
 10
166.23
 20
113.029
 11
167.135
 21
112.766
  0
LINE
  8
0
 10
167.135
 20
112.766
 11
168.022
 21
112.447
  0
LINE
  8
0
 10
168.022
 20
112.447
 11
168.887
 21
112.072
  0
LINE
  8
0
 10
168.887
 20
112.072
 11
169.726
 21
111.645
  0
LINE
  8
0
 10
169.726
 20
111.645
 11
170.537
 21
111.165
  0
LINE
  8
0
 10
170.537
 20
111.165
 11
171.317
 21
110.635
  0
LINE
  8
0
 10
171.317
 20
110.635
 11
172.061
 21
110.058
  0
LINE
  8
0
 10
172.061
 20
110.058
 11
172.768
 21
109.435
  0
LINE
  8
0
 10
172.768
 20
109.435
 11
173.435
 21
108.768
  0
LINE
  8
0
 10
173.435
 20
108.768
 11
174.058
 21
108.061
  0
LINE
  8
0
 10
174.058
 20
108.061
 11
174.635
 21
107.317
  0
LINE
  8
0
 10
174.635
 20
107.317
 11
175.165
 21
106.537
  0
LINE
  8
0
 10
175.165
 20
106.537
 11
175.645
 21
105.726
  0
LINE
  8
0
 10
175.645
 20
105.726
 11
176.072
 21
104.887
  0
LINE
  8
0
 10
176.072
 20
104.887
 11
176.447
 21
104.022
  0
LINE
  8
0
 10
176.447
 20
104.022
 11
176.766
 21
103.135
  0
LINE
  8
0
 10
176.766
 20
103.135
 11
177.029
 21
102.23
  0
LINE
  8
0
 10
177.029
 20
102.23
 11
177.234
 21
101.311
  0
LINE
  8
0
 10
177.234
 20
101.311
 11
177.382
 21
100.38
  0
LINE
  8
0
 10
177.382
 20
100.38
 11
177.47
 21
99.4418
  0
LINE
  8
0
 10
177.47
 20
99.4418
 11
177.5
 21
98.5
  0
LINE
  8
0
 10
177.5
 20
98.5
 11
177.47
 21
97.5581
  0
LINE
  8
0
 10
177.47
 20
97.5581
 11
177.382
 21
96.62
  0
LINE
  8
0
 10
177.382
 20
96.62
 11
177.234
 21
95.6893
  0
LINE
  8
0
 10
177.234
 20
95.6893
 11
177.029
 21
94.7696
  0
LINE
  8
0
 10
177.029
 20
94.7696
 11
176.766
 21
93.8647
  0
LINE
  8
0
 10
176.766
 20
93.8647
 11
176.447
 21
92.9781
  0
LINE
  8
0
 10
176.447
 20
92.9781
 11
176.072
 21
92.1133
  0
LINE
  8
0
 10
176.072
 20
92.1133
 11
175.645
 21
91.2737
  0
LINE
  8
0
 10
175.645
 20
91.2737
 11
175.165
 21
90.4626
  0
LINE
  8
0
 10
175.165
 20
90.4626
 11
174.635
 21
89.6832
  0
LINE
  8
0
 10
174.635
 20
89.6832
 11
174.058
 21
88.9386
  0
LINE
  8
0
 10
174.058
 20
88.9386
 11
173.435
 21
88.2318
  0
LINE
  8
0
 10
173.435
 20
88.2318
 11
172.768
 21
87.5655
  0
LINE
  8
0
 10
172.768
 20
87.5655
 11
172.061
 21
86.9423
  0
LINE
  8
0
 10
172.061
 20
86.9423
 11
171.317
 21
86.3647
  0
LINE
  8
0
 10
171.317
 20
86.3647
 11
170.537
 21
85.8351
  0
LINE
  8
0
 10
170.537
 20
85.8351
 11
169.726
 21
85.3554
  0
LINE
  8
0
 10
169.726
 20
85.3554
 11
168.887
 21
84.9276
  0
LINE
  8
0
 10
168.887
 20
84.9276
 11
168.022
 21
84.5533
  0
LINE
  8
0
 10
168.022
 20
84.5533
 11
167.135
 21
84.2341
  0
LINE
  8
0
 10
167.135
 20
84.2341
 11
166.23
 21
83.9713
  0
LINE
  8
0
 10
166.23
 20
83.9713
 11
165.311
 21
83.7657
  0
LINE
  8
0
 10
165.311
 20
83.7657
 11
164.38
 21
83.6183
  0
LINE
  8
0
 10
164.38
 20
83.6183
 11
163.442
 21
83.5296
  0
LINE
  8
0
 10
163.442
 20
83.5296
 11
162.5
 21
83.5
  0
LINE
  8
0
 10
162.5
 20
83.5
 11
161.558
 21
83.5296
  0
LINE
  8
0
 10
198.558
 20
83.5296
 11
197.62
 21
83.6183
  0
LINE
  8
0
 10
197.62
 20
83.6183
 11
196.689
 21
83.7657
  0
LINE
  8
0
 10
196.689
 20
83.7657
 11
195.77
 21
83.9713
  0
LINE
  8
0
 10
195.77
 20
83.9713
 11
194.865
 21
84.2341
  0
LINE
  8
0
 10
194.865
 20
84.2341
 11
193.978
 21
84.5533
  0
LINE
  8
0
 10
193.978
 20
84.5533
 11
193.113
 21
84.9276
  0
LINE
  8
0
 10
193.113
 20
84.9276
 11
192.274
 21
85.3554
  0
LINE
  8
0
 10
192.274
 20
85.3554
 11
191.463
 21
85.8351
  0
LINE
  8
0
 10
191.463
 20
85.8351
 11
190.683
 21
86.3647
  0
LINE
  8
0
 10
190.683
 20
86.3647
 11
189.939
 21
86.9423
  0
LINE
  8
0
 10
189.939
 20
86.9423
 11
189.232
 21
87.5655
  0
LINE
  8
0
 10
189.232
 20
87.5655
 11
188.565
 21
88.2318
  0
LINE
  8
0
 10
188.565
 20
88.2318
 11
187.942
 21
88.9386
  0
LINE
  8
0
 10
187.942
 20
88.9386
 11
187.365
 21
89.6832
  0
LINE
  8
0
 10
187.365
 20
89.6832
 11
186.835
 21
90.4626
  0
LINE
  8
0
 10
186.835
 20
90.4626
 11
186.355
 21
91.2737
  0
LINE
  8
0
 10
186.355
 20
91.2737
 11
185.928
 21
92.1133
  0
LINE
  8
0
 10
185.928
 20
92.1133
 11
185.553
 21
92.9781
  0
LINE
  8
0
 10
185.553
 20
92.9781
 11
185.234
 21
93.8647
  0
LINE
  8
0
 10
185.234
 20
93.8647
 11
184.971
 21
94.7696
  0
LINE
  8
0
 10
184.971
 20
94.7696
 11
184.766
 21
95.6893
  0
LINE
  8
0
 10
184.766
 20
95.6893
 11
184.618
 21
96.62
  0
LINE
  8
0
 10
184.618
 20
96.62
 11
184.53
 21
97.5581
  0
LINE
  8
0
 10
184.53
 20
97.5581
 11
184.5
 21
98.5
  0
LINE
  8
0
 10
184.5
 20
98.5
 11
184.53
 21
99.4418
  0
LINE
  8
0
 10
184.53
 20
99.4418
 11
184.618
 21
100.38
  0
LINE
  8
0
 10
184.618
 20
100.38
 11
184.766
 21
101.311
  0
LINE
  8
0
 10
184.766
 20
101.311
 11
184.971
 21
102.23
  0
LINE
  8
0
 10
184.971
 20
102.23
 11
185.234
 21
103.135
  0
LINE
  8
0
 10
185.234
 20
103.135
 11
185.553
 21
104.022
  0
LINE
  8
0
 10
185.553
 20
104.022
 11
185.928
 21
104.887
  0
LINE
  8
0
 10
185.928
 20
104.887
 11
186.355
 21
105.726
  0
LINE
  8
0
 10
186.355
 20
105.726
 11
186.835
 21
106.537
  0
LINE
  8
0
 10
186.835
 20
106.537
 11
187.365
 21
107.317
  0
LINE
  8
0
 10
187.365
 20
107.317
 11
187.942
 21
108.061
  0
LINE
  8
0
 10
187.942
 20
108.061
 11
188.565
 21
108.768
  0
LINE
  8
0
 10
188.565
 20
108.768
 11
189.232
 21
109.435
  0
LINE
  8
0
 10
189.232
 20
109.435
 11
189.939
 21
110.058
  0
LINE
  8
0
 10
189.939
 20
110.058
 11
190.683
 21
110.635
  0
LINE
  8
0
 10
190.683
 20
110.635
 11
191.463
 21
111.165
  0
LINE
  8
0
 10
191.463
 20
111.165
 11
192.274
 21
111.645
  0
LINE
  8
0
 10
192.274
 20
111.645
 11
193.113
 21
112.072
  0
LINE
  8
0
 10
193.113
 20
112.072
 11
193.978
 21
112.447
  0
LINE
  8
0
 10
193.978
 20
112.447
 11
194.865
 21
112.766
  0
LINE
  8
0
 10
194.865
 20
112.766
 11
195.77
 21
113.029
  0
LINE
  8
0
 10
195.77
 20
113.029
 11
196.689
 21
113.234
  0
LINE
  8
0
 10
196.689
 20
113.234
 11
197.62
 21
113.382
  0
LINE
  8
0
 10
197.62
 20
113.382
 11
198.558
 21
113.47
  0
LINE
  8
0
 10
198.558
 20
113.47
 11
199.5
 21
113.5
  0
LINE
  8
0
 10
199.5
 20
113.5
 11
200.442
 21
113.47
  0
LINE
  8
0
 10
200.442
 20
113.47
 11
201.38
 21
113.382
  0
LINE
  8
0
 10
201.38
 20
113.382
 11
202.311
 21
113.234
  0
LINE
  8
0
 10
202.311
 20
113.234
 11
203.23
 21
113.029
  0
LINE
  8
0
 10
203.23
 20
113.029
 11
204.135
 21
112.766
  0
LINE
  8
0
 10
204.135
 20
112.766
 11
205.022
 21
112.447
  0
LINE
  8
0
 10
205.022
 20
112.447
 11
205.887
 21
112.072
  0
LINE
  8
0
 10
205.887
 20
112.072
 11
206.726
 21
111.645
  0
LINE
  8
0
 10
206.726
 20
111.645
 11
207.537
 21
111.165
  0
LINE
  8
0
 10
207.537
 20
111.165
 11
208.317
 21
110.635
  0
LINE
  8
0
 10
208.317
 20
110.635
 11
209.061
 21
110.058
  0
LINE
  8
0
 10
209.061
 20
110.058
 11
209.768
 21
109.435
  0
LINE
  8
0
 10
209.768
 20
109.435
 11
210.435
 21
108.768
  0
LINE
  8
0
 10
210.435
 20
108.768
 11
211.058
 21
108.061
  0
LINE
  8
0
 10
211.058
 20
108.061
 11
211.635
 21
107.317
  0
LINE
  8
0
 10
211.635
 20
107.317
 11
212.165
 21
106.537
  0
LINE
  8
0
 10
212.165
 20
106.537
 11
212.645
 21
105.726
  0
LINE
  8
0
 10
212.645
 20
105.726
 11
213.072
 21
104.887
  0
LINE
  8
0
 10
213.072
 20
104.887
 11
213.447
 21
104.022
  0
LINE
  8
0
 10
213.447
 20
104.022
 11
213.766
 21
103.135
  0
LINE
  8
0
 10
213.766
 20
103.135
 11
214.029
 21
102.23
  0
LINE
  8
0
 10
214.029
 20
102.23
 11
214.234
 21
101.311
  0
LINE
  8
0
 10
214.234
 20
101.311
 11
214.382
 21
100.38
  0
LINE
  8
0
 10
214.382
 20
100.38
 11
214.47
 21
99.4418
  0
LINE
  8
0
 10
214.47
 20
99.4418
 11
214.5
 21
98.5
  0
LINE
  8
0
 10
214.5
 20
98.5
 11
214.47
 21
97.5581
  0
LINE
  8
0
 10
214.47
 20
97.5581
 11
214.382
 21
96.62
  0
LINE
  8
0
 10
214.382
 20
96.62
 11
214.234
 21
95.6893
  0
LINE
  8
0
 10
214.234
 20
95.6893
 11
214.029
 21
94.7696
  0
LINE
  8
0
 10
214.029
 20
94.7696
 11
213.766
 21
93.8647
  0
LINE
  8
0
 10
213.766
 20
93.8647
 11
213.447
 21
92.9781
  0
LINE
  8
0
 10
213.447
 20
92.9781
 11
213.072
 21
92.1133
  0
LINE
  8
0
 10
213.072
 20
92.1133
 11
212.645
 21
91.2737
  0
LINE
  8
0
 10
212.645
 20
91.2737
 11
212.165
 21
90.4626
  0
LINE
  8
0
 10
212.165
 20
90.4626
 11
211.635
 21
89.6832
  0
LINE
  8
0
 10
211.635
 20
89.6832
 11
211.058
 21
88.9386
  0
LINE
  8
0
 10
211.058
 20
88.9386
 11
210.435
 21
88.2318
  0
LINE
  8
0
 10
210.435
 20
88.2318
 11
209.768
 21
87.5655
  0
LINE
  8
0
 10
209.768
 20
87.5655
 11
209.061
 21
86.9423
  0
LINE
  8
0
 10
209.061
 20
86.9423
 11
208.317
 21
86.3647
  0
LINE
  8
0
 10
208.317
 20
86.3647
 11
207.537
 21
85.8351
  0
LINE
  8
0
 10
207.537
 20
85.8351
 11
206.726
 21
85.3554
  0
LINE
  8
0
 10
206.726
 20
85.3554
 11
205.887
 21
84.9276
  0
LINE
  8
0
 10
205.887
 20
84.9276
 11
205.022
 21
84.5533
  0
LINE
  8
0
 10
205.022
 20
84.5533
 11
204.135
 21
84.2341
  0
LINE
  8
0
 10
204.135
 20
84.2341
 11
203.23
 21
83.9713
  0
LINE
  8
0
 10
203.23
 20
83.9713
 11
202.311
 21
83.7657
  0
LINE
  8
0
 10
202.311
 20
83.7657
 11
201.38
 21
83.6183
  0
LINE
  8
0
 10
201.38
 20
83.6183
 11
200.442
 21
83.5296
  0
LINE
  8
0
 10
200.442
 20
83.5296
 11
199.5
 21
83.5
  0
LINE
  8
0
 10
199.5
 20
83.5
 11
198.558
 21
83.5296
  0
LINE
  8
0
 10
126.558
 20
65.5296
 11
125.62
 21
65.6183
  0
LINE
  8
0
 10
125.62
 20
65.6183
 11
124.689
 21
65.7657
  0
LINE
  8
0
 10
124.689
 20
65.7657
 11
123.77
 21
65.9713
  0
LINE
  8
0
 10
123.77
 20
65.9713
 11
122.865
 21
66.2341
  0
LINE
  8
0
 10
122.865
 20
66.2341
 11
121.978
 21
66.5533
  0
LINE
  8
0
 10
121.978
 20
66.5533
 11
121.113
 21
66.9276
  0
LINE
  8
0
 10
121.113
 20
66.9276
 11
120.274
 21
67.3554
  0
LINE
  8
0
 10
120.274
 20
67.3554
 11
119.463
 21
67.8351
  0
LINE
  8
0
 10
119.463
 20
67.8351
 11
118.683
 21
68.3647
  0
LINE
  8
0
 10
118.683
 20
68.3647
 11
117.939
 21
68.9423
  0
LINE
  8
0
 10
117.939
 20
68.9423
 11
117.232
 21
69.5655
  0
LINE
  8
0
 10
117.232
 20
69.5655
 11
116.565
 21
70.2318
  0
LINE
  8
0
 10
116.565
 20
70.2318
 11
115.942
 21
70.9386
  0
LINE
  8
0
 10
115.942
 20
70.9386
 11
115.365
 21
71.6832
  0
LINE
  8
0
 10
115.365
 20
71.6832
 11
114.835
 21
72.4626
  0
LINE
  8
0
 10
114.835
 20
72.4626
 11
114.355
 21
73.2737
  0
LINE
  8
0
 10
114.355
 20
73.2737
 11
113.928
 21
74.1133
  0
LINE
  8
0
 10
113.928
 20
74.1133
 11
113.553
 21
74.9781
  0
LINE
  8
0
 10
113.553
 20
74.9781
 11
113.234
 21
75.8647
  0
LINE
  8
0
 10
113.234
 20
75.8647
 11
112.971
 21
76.7696
  0
LINE
  8
0
 10
112.971
 20
76.7696
 11
112.766
 21
77.6893
  0
LINE
  8
0
 10
112.766
 20
77.6893
 11
112.618
 21
78.62
  0
LINE
  8
0
 10
112.618
 20
78.62
 11
112.53
 21
79.5581
  0
LINE
  8
0
 10
112.53
 20
79.5581
 11
112.5
 21
80.5
  0
LINE
  8
0
 10
112.5
 20
80.5
 11
112.53
 21
81.4418
  0
LINE
  8
0
 10
112.53
 20
81.4418
 11
112.618
 21
82.38
  0
LINE
  8
0
 10
112.618
 20
82.38
 11
112.766
 21
83.3107
  0
LINE
  8
0
 10
112.766
 20
83.3107
 11
112.971
 21
84.2303
  0
LINE
  8
0
 10
112.971
 20
84.2303
 11
113.234
 21
85.1353
  0
LINE
  8
0
 10
113.234
 20
85.1353
 11
113.553
 21
86.0219
  0
LINE
  8
0
 10
113.553
 20
86.0219
 11
113.928
 21
86.8867
  0
LINE
  8
0
 10
113.928
 20
86.8867
 11
114.355
 21
87.7263
  0
LINE
  8
0
 10
114.355
 20
87.7263
 11
114.835
 21
88.5374
  0
LINE
  8
0
 10
114.835
 20
88.5374
 11
115.365
 21
89.3168
  0
LINE
  8
0
 10
115.365
 20
89.3168
 11
115.942
 21
90.0614
  0
LINE
  8
0
 10
115.942
 20
90.0614
 11
116.565
 21
90.7682
  0
LINE
  8
0
 10
116.565
 20
90.7682
 11
117.232
 21
91.4345
  0
LINE
  8
0
 10
117.232
 20
91.4345
 11
117.939
 21
92.0577
  0
LINE
  8
0
 10
117.939
 20
92.0577
 11
118.683
 21
92.6353
  0
LINE
  8
0
 10
118.683
 20
92.6353
 11
119.463
 21
93.1649
  0
LINE
  8
0
 10
119.463
 20
93.1649
 11
120.274
 21
93.6446
  0
LINE
  8
0
 10
120.274
 20
93.6446
 11
121.113
 21
94.0724
  0
LINE
  8
0
 10
121.113
 20
94.0724
 11
121.978
 21
94.4466
  0
LINE
  8
0
 10
121.978
 20
94.4466
 11
122.865
 21
94.7658
  0
LINE
  8
0
 10
122.865
 20
94.7658
 11
123.77
 21
95.0287
  0
LINE
  8
0
 10
123.77
 20
95.0287
 11
124.689
 21
95.2343
  0
LINE
  8
0
 10
124.689
 20
95.2343
 11
125.62
 21
95.3817
  0
LINE
  8
0
 10
125.62
 20
95.3817
 11
126.558
 21
95.4704
  0
LINE
  8
0
 10
126.558
 20
95.4704
 11
127.5
 21
95.5
  0
LINE
  8
0
 10
127.5
 20
95.5
 11
128.442
 21
95.4704
  0
LINE
  8
0
 10
128.442
 20
95.4704
 11
129.38
 21
95.3817
  0
LINE
  8
0
 10
129.38
 20
95.3817
 11
130.311
 21
95.2343
  0
LINE
  8
0
 10
130.311
 20
95.2343
 11
131.23
 21
95.0287
  0
LINE
  8
0
 10
131.23
 20
95.0287
 11
132.135
 21
94.7658
  0
LINE
  8
0
 10
132.135
 20
94.7658
 11
133.022
 21
94.4466
  0
LINE
  8
0
 10
133.022
 20
94.4466
 11
133.887
 21
94.0724
  0
LINE
  8
0
 10
133.887
 20
94.0724
 11
134.726
 21
93.6446
  0
LINE
  8
0
 10
134.726
 20
93.6446
 11
135.537
 21
93.1649
  0
LINE
  8
0
 10
135.537
 20
93.1649
 11
136.317
 21
92.6353
  0
LINE
  8
0
 10
136.317
 20
92.6353
 11
137.061
 21
92.0577
  0
LINE
  8
0
 10
137.061
 20
92.0577
 11
137.768
 21
91.4345
  0
LINE
  8
0
 10
137.768
 20
91.4345
 11
138.435
 21
90.7682
  0
LINE
  8
0
 10
138.435
 20
90.7682
 11
139.058
 21
90.0614
  0
LINE
  8
0
 10
139.058
 20
90.0614
 11
139.635
 21
89.3168
  0
LINE
  8
0
 10
139.635
 20
89.3168
 11
140.165
 21
88.5374
  0
LINE
  8
0
 10
140.165
 20
88.5374
 11
140.645
 21
87.7263
  0
LINE
  8
0
 10
140.645
 20
87.7263
 11
141.072
 21
86.8867
  0
LINE
  8
0
 10
141.072
 20
86.8867
 11
141.447
 21
86.0219
  0
LINE
  8
0
 10
141.447
 20
86.0219
 11
141.766
 21
85.1353
  0
LINE
  8
0
 10
141.766
 20
85.1353
 11
142.029
 21
84.2303
  0
LINE
  8
0
 10
142.029
 20
84.2303
 11
142.234
 21
83.3107
  0
LINE
  8
0
 10
142.234
 20
83.3107
 11
142.382
 21
82.38
  0
LINE
  8
0
 10
142.382
 20
82.38
 11
142.47
 21
81.4418
  0
LINE
  8
0
 10
142.47
 20
81.4418
 11
142.5
 21
80.5
  0
LINE
  8
0
 10
142.5
 20
80.5
 11
142.47
 21
79.5581
  0
LINE
  8
0
 10
142.47
 20
79.5581
 11
142.382
 21
78.62
  0
LINE
  8
0
 10
142.382
 20
78.62
 11
142.234
 21
77.6893
  0
LINE
  8
0
 10
142.234
 20
77.6893
 11
142.029
 21
76.7696
  0
LINE
  8
0
 10
142.029
 20
76.7696
 11
141.766
 21
75.8647
  0
LINE
  8
0
 10
141.766
 20
75.8647
 11
141.447
 21
74.9781
  0
LINE
  8
0
 10
141.447
 20
74.9781
 11
141.072
 21
74.1133
  0
LINE
  8
0
 10
141.072
 20
74.1133
 11
140.645
 21
73.2737
  0
LINE
  8
0
 10
140.645
 20
73.2737
 11
140.165
 21
72.4626
  0
LINE
  8
0
 10
140.165
 20
72.4626
 11
139.635
 21
71.6832
  0
LINE
  8
0
 10
139.635
 20
71.6832
 11
139.058
 21
70.9386
  0
LINE
  8
0
 10
139.058
 20
70.9386
 11
138.435
 21
70.2318
  0
LINE
  8
0
 10
138.435
 20
70.2318
 11
137.768
 21
69.5655
  0
LINE
  8
0
 10
137.768
 20
69.5655
 11
137.061
 21
68.9423
  0
LINE
  8
0
 10
137.061
 20
68.9423
 11
136.317
 21
68.3647
  0
LINE
  8
0
 10
136.317
 20
68.3647
 11
135.537
 21
67.8351
  0
LINE
  8
0
 10
135.537
 20
67.8351
 11
134.726
 21
67.3554
  0
LINE
  8
0
 10
134.726
 20
67.3554
 11
133.887
 21
66.9276
  0
LINE
  8
0
 10
133.887
 20
66.9276
 11
133.022
 21
66.5533
  0
LINE
  8
0
 10
133.022
 20
66.5533
 11
132.135
 21
66.2341
  0
LINE
  8
0
 10
132.135
 20
66.2341
 11
131.23
 21
65.9713
  0
LINE
  8
0
 10
131.23
 20
65.9713
 11
130.311
 21
65.7657
  0
LINE
  8
0
 10
130.311
 20
65.7657
 11
129.38
 21
65.6183
  0
LINE
  8
0
 10
129.38
 20
65.6183
 11
128.442
 21
65.5296
  0
LINE
  8
0
 10
128.442
 20
65.5296
 11
127.5
 21
65.5
  0
LINE
  8
0
 10
127.5
 20
65.5
 11
126.558
 21
65.5296
  0
LINE
  8
0
 10
6.40581
 20
83.5029
 11
6.312
 21
83.5118
  0
LINE
  8
0
 10
6.312
 20
83.5118
 11
6.21892
 21
83.5266
  0
LINE
  8
0
 10
6.21892
 20
83.5266
 11
6.12695
 21
83.5471
  0
LINE
  8
0
 10
6.12695
 20
83.5471
 11
6.03647
 21
83.5734
  0
LINE
  8
0
 10
6.03647
 20
83.5734
 11
5.9478
 21
83.6053
  0
LINE
  8
0
 10
5.9478
 20
83.6053
 11
5.86133
 21
83.6427
  0
LINE
  8
0
 10
5.86133
 20
83.6427
 11
5.77736
 21
83.6855
  0
LINE
  8
0
 10
5.77736
 20
83.6855
 11
5.69626
 21
83.7335
  0
LINE
  8
0
 10
5.69626
 20
83.7335
 11
5.61832
 21
83.7865
  0
LINE
  8
0
 10
5.61832
 20
83.7865
 11
5.54385
 21
83.8442
  0
LINE
  8
0
 10
5.54385
 20
83.8442
 11
5.47318
 21
83.9065
  0
LINE
  8
0
 10
5.47318
 20
83.9065
 11
5.40654
 21
83.9732
  0
LINE
  8
0
 10
5.40654
 20
83.9732
 11
5.34422
 21
84.0439
  0
LINE
  8
0
 10
5.34422
 20
84.0439
 11
5.28647
 21
84.1183
  0
LINE
  8
0
 10
5.28647
 20
84.1183
 11
5.23351
 21
84.1963
  0
LINE
  8
0
 10
5.23351
 20
84.1963
 11
5.18553
 21
84.2774
  0
LINE
  8
0
 10
5.18553
 20
84.2774
 11
5.14275
 21
84.3613
  0
LINE
  8
0
 10
5.14275
 20
84.3613
 11
5.10533
 21
84.4478
  0
LINE
  8
0
 10
5.10533
 20
84.4478
 11
5.07341
 21
84.5365
  0
LINE
  8
0
 10
5.07341
 20
84.5365
 11
5.04712
 21
84.627
  0
LINE
  8
0
 10
5.04712
 20
84.627
 11
5.02657
 21
84.7189
  0
LINE
  8
0
 10
5.02657
 20
84.7189
 11
5.01183
 21
84.812
  0
LINE
  8
0
 10
5.01183
 20
84.812
 11
5.00294
 21
84.9058
  0
LINE
  8
0
 10
5.00294
 20
84.9058
 11
5
 21
85
  0
LINE
  8
0
 10
5
 20
85
 11
5.00294
 21
85.0942
  0
LINE
  8
0
 10
5.00294
 20
85.0942
 11
5.01183
 21
85.188
  0
LINE
  8
0
 10
5.01183
 20
85.188
 11
5.02657
 21
85.2811
  0
LINE
  8
0
 10
5.02657
 20
85.2811
 11
5.04712
 21
85.373
  0
LINE
  8
0
 10
5.04712
 20
85.373
 11
5.07341
 21
85.4635
  0
LINE
  8
0
 10
5.07341
 20
85.4635
 11
5.10533
 21
85.5522
  0
LINE
  8
0
 10
5.10533
 20
85.5522
 11
5.14275
 21
85.6387
  0
LINE
  8
0
 10
5.14275
 20
85.6387
 11
5.18553
 21
85.7226
  0
LINE
  8
0
 10
5.18553
 20
85.7226
 11
5.23351
 21
85.8037
  0
LINE
  8
0
 10
5.23351
 20
85.8037
 11
5.28647
 21
85.8817
  0
LINE
  8
0
 10
5.28647
 20
85.8817
 11
5.34422
 21
85.9561
  0
LINE
  8
0
 10
5.34422
 20
85.9561
 11
5.40654
 21
86.0268
  0
LINE
  8
0
 10
5.40654
 20
86.0268
 11
5.47318
 21
86.0934
  0
LINE
  8
0
 10
5.47318
 20
86.0934
 11
5.54385
 21
86.1558
  0
LINE
  8
0
 10
5.54385
 20
86.1558
 11
5.61832
 21
86.2135
  0
LINE
  8
0
 10
5.61832
 20
86.2135
 11
5.69626
 21
86.2665
  0
LINE
  8
0
 10
5.69626
 20
86.2665
 11
5.77736
 21
86.3145
  0
LINE
  8
0
 10
5.77736
 20
86.3145
 11
5.86133
 21
86.3572
  0
LINE
  8
0
 10
5.86133
 20
86.3572
 11
5.9478
 21
86.3947
  0
LINE
  8
0
 10
5.9478
 20
86.3947
 11
6.03647
 21
86.4266
  0
LINE
  8
0
 10
6.03647
 20
86.4266
 11
6.12695
 21
86.4529
  0
LINE
  8
0
 10
6.12695
 20
86.4529
 11
6.21892
 21
86.4734
  0
LINE
  8
0
 10
6.21892
 20
86.4734
 11
6.312
 21
86.4882
  0
LINE
  8
0
 10
6.312
 20
86.4882
 11
6.40581
 21
86.497
  0
LINE
  8
0
 10
6.40581
 20
86.497
 11
6.5
 21
86.5
  0
LINE
  8
0
 10
6.5
 20
86.5
 11
6.59418
 21
86.497
  0
LINE
  8
0
 10
6.59418
 20
86.497
 11
6.68799
 21
86.4882
  0
LINE
  8
0
 10
6.68799
 20
86.4882
 11
6.78107
 21
86.4734
  0
LINE
  8
0
 10
6.78107
 20
86.4734
 11
6.87303
 21
86.4529
  0
LINE
  8
0
 10
6.87303
 20
86.4529
 11
6.96352
 21
86.4266
  0
LINE
  8
0
 10
6.96352
 20
86.4266
 11
7.05219
 21
86.3947
  0
LINE
  8
0
 10
7.05219
 20
86.3947
 11
7.13866
 21
86.3572
  0
LINE
  8
0
 10
7.13866
 20
86.3572
 11
7.22263
 21
86.3145
  0
LINE
  8
0
 10
7.22263
 20
86.3145
 11
7.30373
 21
86.2665
  0
LINE
  8
0
 10
7.30373
 20
86.2665
 11
7.38167
 21
86.2135
  0
LINE
  8
0
 10
7.38167
 20
86.2135
 11
7.45613
 21
86.1558
  0
LINE
  8
0
 10
7.45613
 20
86.1558
 11
7.52681
 21
86.0934
  0
LINE
  8
0
 10
7.52681
 20
86.0934
 11
7.59344
 21
86.0268
  0
LINE
  8
0
 10
7.59344
 20
86.0268
 11
7.65576
 21
85.9561
  0
LINE
  8
0
 10
7.65576
 20
85.9561
 11
7.71352
 21
85.8817
  0
LINE
  8
0
 10
7.71352
 20
85.8817
 11
7.76648
 21
85.8037
  0
LINE
  8
0
 10
7.76648
 20
85.8037
 11
7.81445
 21
85.7226
  0
LINE
  8
0
 10
7.81445
 20
85.7226
 11
7.85724
 21
85.6387
  0
LINE
  8
0
 10
7.85724
 20
85.6387
 11
7.89465
 21
85.5522
  0
LINE
  8
0
 10
7.89465
 20
85.5522
 11
7.92657
 21
85.4635
  0
LINE
  8
0
 10
7.92657
 20
85.4635
 11
7.95287
 21
85.373
  0
LINE
  8
0
 10
7.95287
 20
85.373
 11
7.97342
 21
85.2811
  0
LINE
  8
0
 10
7.97342
 20
85.2811
 11
7.98816
 21
85.188
  0
LINE
  8
0
 10
7.98816
 20
85.188
 11
7.99704
 21
85.0942
  0
LINE
  8
0
 10
7.99704
 20
85.0942
 11
8
 21
85
  0
LINE
  8
0
 10
8
 20
85
 11
7.99704
 21
84.9058
  0
LINE
  8
0
 10
7.99704
 20
84.9058
 11
7.98816
 21
84.812
  0
LINE
  8
0
 10
7.98816
 20
84.812
 11
7.97342
 21
84.7189
  0
LINE
  8
0
 10
7.97342
 20
84.7189
 11
7.95287
 21
84.627
  0
LINE
  8
0
 10
7.95287
 20
84.627
 11
7.92657
 21
84.5365
  0
LINE
  8
0
 10
7.92657
 20
84.5365
 11
7.89465
 21
84.4478
  0
LINE
  8
0
 10
7.89465
 20
84.4478
 11
7.85724
 21
84.3613
  0
LINE
  8
0
 10
7.85724
 20
84.3613
 11
7.81445
 21
84.2774
  0
LINE
  8
0
 10
7.81445
 20
84.2774
 11
7.76648
 21
84.1963
  0
LINE
  8
0
 10
7.76648
 20
84.1963
 11
7.71352
 21
84.1183
  0
LINE
  8
0
 10
7.71352
 20
84.1183
 11
7.65576
 21
84.0439
  0
LINE
  8
0
 10
7.65576
 20
84.0439
 11
7.59344
 21
83.9732
  0
LINE
  8
0
 10
7.59344
 20
83.9732
 11
7.52681
 21
83.9065
  0
LINE
  8
0
 10
7.52681
 20
83.9065
 11
7.45613
 21
83.8442
  0
LINE
  8
0
 10
7.45613
 20
83.8442
 11
7.38167
 21
83.7865
  0
LINE
  8
0
 10
7.38167
 20
83.7865
 11
7.30373
 21
83.7335
  0
LINE
  8
0
 10
7.30373
 20
83.7335
 11
7.22263
 21
83.6855
  0
LINE
  8
0
 10
7.22263
 20
83.6855
 11
7.13866
 21
83.6427
  0
LINE
  8
0
 10
7.13866
 20
83.6427
 11
7.05219
 21
83.6053
  0
LINE
  8
0
 10
7.05219
 20
83.6053
 11
6.96352
 21
83.5734
  0
LINE
  8
0
 10
6.96352
 20
83.5734
 11
6.87303
 21
83.5471
  0
LINE
  8
0
 10
6.87303
 20
83.5471
 11
6.78107
 21
83.5266
  0
LINE
  8
0
 10
6.78107
 20
83.5266
 11
6.68799
 21
83.5118
  0
LINE
  8
0
 10
6.68799
 20
83.5118
 11
6.59418
 21
83.5029
  0
LINE
  8
0
 10
6.59418
 20
83.5029
 11
6.5
 21
83.5
  0
LINE
  8
0
 10
6.5
 20
83.5
 11
6.40581
 21
83.5029
  0
LINE
  8
0
 10
223.406
 20
83.5029
 11
223.312
 21
83.5118
  0
LINE
  8
0
 10
223.312
 20
83.5118
 11
223.219
 21
83.5266
  0
LINE
  8
0
 10
223.219
 20
83.5266
 11
223.127
 21
83.5471
  0
LINE
  8
0
 10
223.127
 20
83.5471
 11
223.036
 21
83.5734
  0
LINE
  8
0
 10
223.036
 20
83.5734
 11
222.948
 21
83.6053
  0
LINE
  8
0
 10
222.948
 20
83.6053
 11
222.861
 21
83.6427
  0
LINE
  8
0
 10
222.861
 20
83.6427
 11
222.777
 21
83.6855
  0
LINE
  8
0
 10
222.777
 20
83.6855
 11
222.696
 21
83.7335
  0
LINE
  8
0
 10
222.696
 20
83.7335
 11
222.618
 21
83.7865
  0
LINE
  8
0
 10
222.618
 20
83.7865
 11
222.544
 21
83.8442
  0
LINE
  8
0
 10
222.544
 20
83.8442
 11
222.473
 21
83.9065
  0
LINE
  8
0
 10
222.473
 20
83.9065
 11
222.407
 21
83.9732
  0
LINE
  8
0
 10
222.407
 20
83.9732
 11
222.344
 21
84.0439
  0
LINE
  8
0
 10
222.344
 20
84.0439
 11
222.286
 21
84.1183
  0
LINE
  8
0
 10
222.286
 20
84.1183
 11
222.234
 21
84.1963
  0
LINE
  8
0
 10
222.234
 20
84.1963
 11
222.186
 21
84.2774
  0
LINE
  8
0
 10
222.186
 20
84.2774
 11
222.143
 21
84.3613
  0
LINE
  8
0
 10
222.143
 20
84.3613
 11
222.105
 21
84.4478
  0
LINE
  8
0
 10
222.105
 20
84.4478
 11
222.073
 21
84.5365
  0
LINE
  8
0
 10
222.073
 20
84.5365
 11
222.047
 21
84.627
  0
LINE
  8
0
 10
222.047
 20
84.627
 11
222.027
 21
84.7189
  0
LINE
  8
0
 10
222.027
 20
84.7189
 11
222.012
 21
84.812
  0
LINE
  8
0
 10
222.012
 20
84.812
 11
222.003
 21
84.9058
  0
LINE
  8
0
 10
222.003
 20
84.9058
 11
222
 21
85
  0
LINE
  8
0
 10
222
 20
85
 11
222.003
 21
85.0942
  0
LINE
  8
0
 10
222.003
 20
85.0942
 11
222.012
 21
85.188
  0
LINE
  8
0
 10
222.012
 20
85.188
 11
222.027
 21
85.2811
  0
LINE
  8
0
 10
222.027
 20
85.2811
 11
222.047
 21
85.373
  0
LINE
  8
0
 10
222.047
 20
85.373
 11
222.073
 21
85.4635
  0
LINE
  8
0
 10
222.073
 20
85.4635
 11
222.105
 21
85.5522
  0
LINE
  8
0
 10
222.105
 20
85.5522
 11
222.143
 21
85.6387
  0
LINE
  8
0
 10
222.143
 20
85.6387
 11
222.186
 21
85.7226
  0
LINE
  8
0
 10
222.186
 20
85.7226
 11
222.234
 21
85.8037
  0
LINE
  8
0
 10
222.234
 20
85.8037
 11
222.286
 21
85.8817
  0
LINE
  8
0
 10
222.286
 20
85.8817
 11
222.344
 21
85.9561
  0
LINE
  8
0
 10
222.344
 20
85.9561
 11
222.407
 21
86.0268
  0
LINE
  8
0
 10
222.407
 20
86.0268
 11
222.473
 21
86.0934
  0
LINE
  8
0
 10
222.473
 20
86.0934
 11
222.544
 21
86.1558
  0
LINE
  8
0
 10
222.544
 20
86.1558
 11
222.618
 21
86.2135
  0
LINE
  8
0
 10
222.618
 20
86.2135
 11
222.696
 21
86.2665
  0
LINE
  8
0
 10
222.696
 20
86.2665
 11
222.777
 21
86.3145
  0
LINE
  8
0
 10
222.777
 20
86.3145
 11
222.861
 21
86.3572
  0
LINE
  8
0
 10
222.861
 20
86.3572
 11
222.948
 21
86.3947
  0
LINE
  8
0
 10
222.948
 20
86.3947
 11
223.036
 21
86.4266
  0
LINE
  8
0
 10
223.036
 20
86.4266
 11
223.127
 21
86.4529
  0
LINE
  8
0
 10
223.127
 20
86.4529
 11
223.219
 21
86.4734
  0
LINE
  8
0
 10
223.219
 20
86.4734
 11
223.312
 21
86.4882
  0
LINE
  8
0
 10
223.312
 20
86.4882
 11
223.406
 21
86.497
  0
LINE
  8
0
 10
223.406
 20
86.497
 11
223.5
 21
86.5
  0
LINE
  8
0
 10
223.5
 20
86.5
 11
223.594
 21
86.497
  0
LINE
  8
0
 10
223.594
 20
86.497
 11
223.688
 21
86.4882
  0
LINE
  8
0
 10
223.688
 20
86.4882
 11
223.781
 21
86.4734
  0
LINE
  8
0
 10
223.781
 20
86.4734
 11
223.873
 21
86.4529
  0
LINE
  8
0
 10
223.873
 20
86.4529
 11
223.964
 21
86.4266
  0
LINE
  8
0
 10
223.964
 20
86.4266
 11
224.052
 21
86.3947
  0
LINE
  8
0
 10
224.052
 20
86.3947
 11
224.139
 21
86.3572
  0
LINE
  8
0
 10
224.139
 20
86.3572
 11
224.223
 21
86.3145
  0
LINE
  8
0
 10
224.223
 20
86.3145
 11
224.304
 21
86.2665
  0
LINE
  8
0
 10
224.304
 20
86.2665
 11
224.382
 21
86.2135
  0
LINE
  8
0
 10
224.382
 20
86.2135
 11
224.456
 21
86.1558
  0
LINE
  8
0
 10
224.456
 20
86.1558
 11
224.527
 21
86.0934
  0
LINE
  8
0
 10
224.527
 20
86.0934
 11
224.593
 21
86.0268
  0
LINE
  8
0
 10
224.593
 20
86.0268
 11
224.656
 21
85.9561
  0
LINE
  8
0
 10
224.656
 20
85.9561
 11
224.714
 21
85.8817
  0
LINE
  8
0
 10
224.714
 20
85.8817
 11
224.766
 21
85.8037
  0
LINE
  8
0
 10
224.766
 20
85.8037
 11
224.814
 21
85.7226
  0
LINE
  8
0
 10
224.814
 20
85.7226
 11
224.857
 21
85.6387
  0
LINE
  8
0
 10
224.857
 20
85.6387
 11
224.895
 21
85.5522
  0
LINE
  8
0
 10
224.895
 20
85.5522
 11
224.927
 21
85.4635
  0
LINE
  8
0
 10
224.927
 20
85.4635
 11
224.953
 21
85.373
  0
LINE
  8
0
 10
224.953
 20
85.373
 11
224.973
 21
85.2811
  0
LINE
  8
0
 10
224.973
 20
85.2811
 11
224.988
 21
85.188
  0
LINE
  8
0
 10
224.988
 20
85.188
 11
224.997
 21
85.0942
  0
LINE
  8
0
 10
224.997
 20
85.0942
 11
225
 21
85
  0
LINE
  8
0
 10
225
 20
85
 11
224.997
 21
84.9058
  0
LINE
  8
0
 10
224.997
 20
84.9058
 11
224.988
 21
84.812
  0
LINE
  8
0
 10
224.988
 20
84.812
 11
224.973
 21
84.7189
  0
LINE
  8
0
 10
224.973
 20
84.7189
 11
224.953
 21
84.627
  0
LINE
  8
0
 10
224.953
 20
84.627
 11
224.927
 21
84.5365
  0
LINE
  8
0
 10
224.927
 20
84.5365
 11
224.895
 21
84.4478
  0
LINE
  8
0
 10
224.895
 20
84.4478
 11
224.857
 21
84.3613
  0
LINE
  8
0
 10
224.857
 20
84.3613
 11
224.814
 21
84.2774
  0
LINE
  8
0
 10
224.814
 20
84.2774
 11
224.766
 21
84.1963
  0
LINE
  8
0
 10
224.766
 20
84.1963
 11
224.714
 21
84.1183
  0
LINE
  8
0
 10
224.714
 20
84.1183
 11
224.656
 21
84.0439
  0
LINE
  8
0
 10
224.656
 20
84.0439
 11
224.593
 21
83.9732
  0
LINE
  8
0
 10
224.593
 20
83.9732
 11
224.527
 21
83.9065
  0
LINE
  8
0
 10
224.527
 20
83.9065
 11
224.456
 21
83.8442
  0
LINE
  8
0
 10
224.456
 20
83.8442
 11
224.382
 21
83.7865
  0
LINE
  8
0
 10
224.382
 20
83.7865
 11
224.304
 21
83.7335
  0
LINE
  8
0
 10
224.304
 20
83.7335
 11
224.223
 21
83.6855
  0
LINE
  8
0
 10
224.223
 20
83.6855
 11
224.139
 21
83.6427
  0
LINE
  8
0
 10
224.139
 20
83.6427
 11
224.052
 21
83.6053
  0
LINE
  8
0
 10
224.052
 20
83.6053
 11
223.964
 21
83.5734
  0
LINE
  8
0
 10
223.964
 20
83.5734
 11
223.873
 21
83.5471
  0
LINE
  8
0
 10
223.873
 20
83.5471
 11
223.781
 21
83.5266
  0
LINE
  8
0
 10
223.781
 20
83.5266
 11
223.688
 21
83.5118
  0
LINE
  8
0
 10
223.688
 20
83.5118
 11
223.594
 21
83.5029
  0
LINE
  8
0
 10
223.594
 20
83.5029
 11
223.5
 21
83.5
  0
LINE
  8
0
 10
223.5
 20
83.5
 11
223.406
 21
83.5029
  0
LINE
  8
0
 10
161.558
 20
45.5296
 11
160.62
 21
45.6183
  0
LINE
  8
0
 10
160.62
 20
45.6183
 11
159.689
 21
45.7657
  0
LINE
  8
0
 10
159.689
 20
45.7657
 11
158.77
 21
45.9713
  0
LINE
  8
0
 10
158.77
 20
45.9713
 11
157.865
 21
46.2342
  0
LINE
  8
0
 10
157.865
 20
46.2342
 11
156.978
 21
46.5534
  0
LINE
  8
0
 10
156.978
 20
46.5534
 11
156.113
 21
46.9276
  0
LINE
  8
0
 10
156.113
 20
46.9276
 11
155.274
 21
47.3554
  0
LINE
  8
0
 10
155.274
 20
47.3554
 11
154.463
 21
47.8351
  0
LINE
  8
0
 10
154.463
 20
47.8351
 11
153.683
 21
48.3647
  0
LINE
  8
0
 10
153.683
 20
48.3647
 11
152.939
 21
48.9423
  0
LINE
  8
0
 10
152.939
 20
48.9423
 11
152.232
 21
49.5655
  0
LINE
  8
0
 10
152.232
 20
49.5655
 11
151.565
 21
50.2318
  0
LINE
  8
0
 10
151.565
 20
50.2318
 11
150.942
 21
50.9386
  0
LINE
  8
0
 10
150.942
 20
50.9386
 11
150.365
 21
51.6832
  0
LINE
  8
0
 10
150.365
 20
51.6832
 11
149.835
 21
52.4626
  0
LINE
  8
0
 10
149.835
 20
52.4626
 11
149.355
 21
53.2737
  0
LINE
  8
0
 10
149.355
 20
53.2737
 11
148.928
 21
54.1133
  0
LINE
  8
0
 10
148.928
 20
54.1133
 11
148.553
 21
54.9781
  0
LINE
  8
0
 10
148.553
 20
54.9781
 11
148.234
 21
55.8647
  0
LINE
  8
0
 10
148.234
 20
55.8647
 11
147.971
 21
56.7697
  0
LINE
  8
0
 10
147.971
 20
56.7697
 11
147.766
 21
57.6893
  0
LINE
  8
0
 10
147.766
 20
57.6893
 11
147.618
 21
58.62
  0
LINE
  8
0
 10
147.618
 20
58.62
 11
147.53
 21
59.5582
  0
LINE
  8
0
 10
147.53
 20
59.5582
 11
147.5
 21
60.5
  0
LINE
  8
0
 10
147.5
 20
60.5
 11
147.53
 21
61.4418
  0
LINE
  8
0
 10
147.53
 20
61.4418
 11
147.618
 21
62.38
  0
LINE
  8
0
 10
147.618
 20
62.38
 11
147.766
 21
63.3107
  0
LINE
  8
0
 10
147.766
 20
63.3107
 11
147.971
 21
64.2303
  0
LINE
  8
0
 10
147.971
 20
64.2303
 11
148.234
 21
65.1353
  0
LINE
  8
0
 10
148.234
 20
65.1353
 11
148.553
 21
66.0219
  0
LINE
  8
0
 10
148.553
 20
66.0219
 11
148.928
 21
66.8867
  0
LINE
  8
0
 10
148.928
 20
66.8867
 11
149.355
 21
67.7263
  0
LINE
  8
0
 10
149.355
 20
67.7263
 11
149.835
 21
68.5374
  0
LINE
  8
0
 10
149.835
 20
68.5374
 11
150.365
 21
69.3168
  0
LINE
  8
0
 10
150.365
 20
69.3168
 11
150.942
 21
70.0614
  0
LINE
  8
0
 10
150.942
 20
70.0614
 11
151.565
 21
70.7682
  0
LINE
  8
0
 10
151.565
 20
70.7682
 11
152.232
 21
71.4345
  0
LINE
  8
0
 10
152.232
 20
71.4345
 11
152.939
 21
72.0577
  0
LINE
  8
0
 10
152.939
 20
72.0577
 11
153.683
 21
72.6353
  0
LINE
  8
0
 10
153.683
 20
72.6353
 11
154.463
 21
73.1649
  0
LINE
  8
0
 10
154.463
 20
73.1649
 11
155.274
 21
73.6446
  0
LINE
  8
0
 10
155.274
 20
73.6446
 11
156.113
 21
74.0724
  0
LINE
  8
0
 10
156.113
 20
74.0724
 11
156.978
 21
74.4466
  0
LINE
  8
0
 10
156.978
 20
74.4466
 11
157.865
 21
74.7658
  0
LINE
  8
0
 10
157.865
 20
74.7658
 11
158.77
 21
75.0287
  0
LINE
  8
0
 10
158.77
 20
75.0287
 11
159.689
 21
75.2343
  0
LINE
  8
0
 10
159.689
 20
75.2343
 11
160.62
 21
75.3817
  0
LINE
  8
0
 10
160.62
 20
75.3817
 11
161.558
 21
75.4704
  0
LINE
  8
0
 10
161.558
 20
75.4704
 11
162.5
 21
75.5
  0
LINE
  8
0
 10
162.5
 20
75.5
 11
163.442
 21
75.4704
  0
LINE
  8
0
 10
163.442
 20
75.4704
 11
164.38
 21
75.3817
  0
LINE
  8
0
 10
164.38
 20
75.3817
 11
165.311
 21
75.2343
  0
LINE
  8
0
 10
165.311
 20
75.2343
 11
166.23
 21
75.0287
  0
LINE
  8
0
 10
166.23
 20
75.0287
 11
167.135
 21
74.7658
  0
LINE
  8
0
 10
167.135
 20
74.7658
 11
168.022
 21
74.4466
  0
LINE
  8
0
 10
168.022
 20
74.4466
 11
168.887
 21
74.0724
  0
LINE
  8
0
 10
168.887
 20
74.0724
 11
169.726
 21
73.6446
  0
LINE
  8
0
 10
169.726
 20
73.6446
 11
170.537
 21
73.1649
  0
LINE
  8
0
 10
170.537
 20
73.1649
 11
171.317
 21
72.6353
  0
LINE
  8
0
 10
171.317
 20
72.6353
 11
172.061
 21
72.0577
  0
LINE
  8
0
 10
172.061
 20
72.0577
 11
172.768
 21
71.4345
  0
LINE
  8
0
 10
172.768
 20
71.4345
 11
173.435
 21
70.7682
  0
LINE
  8
0
 10
173.435
 20
70.7682
 11
174.058
 21
70.0614
  0
LINE
  8
0
 10
174.058
 20
70.0614
 11
174.635
 21
69.3168
  0
LINE
  8
0
 10
174.635
 20
69.3168
 11
175.165
 21
68.5374
  0
LINE
  8
0
 10
175.165
 20
68.5374
 11
175.645
 21
67.7263
  0
LINE
  8
0
 10
175.645
 20
67.7263
 11
176.072
 21
66.8867
  0
LINE
  8
0
 10
176.072
 20
66.8867
 11
176.447
 21
66.0219
  0
LINE
  8
0
 10
176.447
 20
66.0219
 11
176.766
 21
65.1353
  0
LINE
  8
0
 10
176.766
 20
65.1353
 11
177.029
 21
64.2303
  0
LINE
  8
0
 10
177.029
 20
64.2303
 11
177.234
 21
63.3107
  0
LINE
  8
0
 10
177.234
 20
63.3107
 11
177.382
 21
62.38
  0
LINE
  8
0
 10
177.382
 20
62.38
 11
177.47
 21
61.4418
  0
LINE
  8
0
 10
177.47
 20
61.4418
 11
177.5
 21
60.5
  0
LINE
  8
0
 10
177.5
 20
60.5
 11
177.47
 21
59.5582
  0
LINE
  8
0
 10
177.47
 20
59.5582
 11
177.382
 21
58.62
  0
LINE
  8
0
 10
177.382
 20
58.62
 11
177.234
 21
57.6893
  0
LINE
  8
0
 10
177.234
 20
57.6893
 11
177.029
 21
56.7697
  0
LINE
  8
0
 10
177.029
 20
56.7697
 11
176.766
 21
55.8647
  0
LINE
  8
0
 10
176.766
 20
55.8647
 11
176.447
 21
54.9781
  0
LINE
  8
0
 10
176.447
 20
54.9781
 11
176.072
 21
54.1133
  0
LINE
  8
0
 10
176.072
 20
54.1133
 11
175.645
 21
53.2737
  0
LINE
  8
0
 10
175.645
 20
53.2737
 11
175.165
 21
52.4626
  0
LINE
  8
0
 10
175.165
 20
52.4626
 11
174.635
 21
51.6832
  0
LINE
  8
0
 10
174.635
 20
51.6832
 11
174.058
 21
50.9386
  0
LINE
  8
0
 10
174.058
 20
50.9386
 11
173.435
 21
50.2318
  0
LINE
  8
0
 10
173.435
 20
50.2318
 11
172.768
 21
49.5655
  0
LINE
  8
0
 10
172.768
 20
49.5655
 11
172.061
 21
48.9423
  0
LINE
  8
0
 10
172.061
 20
48.9423
 11
171.317
 21
48.3647
  0
LINE
  8
0
 10
171.317
 20
48.3647
 11
170.537
 21
47.8351
  0
LINE
  8
0
 10
170.537
 20
47.8351
 11
169.726
 21
47.3554
  0
LINE
  8
0
 10
169.726
 20
47.3554
 11
168.887
 21
46.9276
  0
LINE
  8
0
 10
168.887
 20
46.9276
 11
168.022
 21
46.5534
  0
LINE
  8
0
 10
168.022
 20
46.5534
 11
167.135
 21
46.2342
  0
LINE
  8
0
 10
167.135
 20
46.2342
 11
166.23
 21
45.9713
  0
LINE
  8
0
 10
166.23
 20
45.9713
 11
165.311
 21
45.7657
  0
LINE
  8
0
 10
165.311
 20
45.7657
 11
164.38
 21
45.6183
  0
LINE
  8
0
 10
164.38
 20
45.6183
 11
163.442
 21
45.5296
  0
LINE
  8
0
 10
163.442
 20
45.5296
 11
162.5
 21
45.5
  0
LINE
  8
0
 10
162.5
 20
45.5
 11
161.558
 21
45.5296
  0
LINE
  8
0
 10
198.558
 20
45.5296
 11
197.62
 21
45.6183
  0
LINE
  8
0
 10
197.62
 20
45.6183
 11
196.689
 21
45.7657
  0
LINE
  8
0
 10
196.689
 20
45.7657
 11
195.77
 21
45.9713
  0
LINE
  8
0
 10
195.77
 20
45.9713
 11
194.865
 21
46.2342
  0
LINE
  8
0
 10
194.865
 20
46.2342
 11
193.978
 21
46.5534
  0
LINE
  8
0
 10
193.978
 20
46.5534
 11
193.113
 21
46.9276
  0
LINE
  8
0
 10
193.113
 20
46.9276
 11
192.274
 21
47.3554
  0
LINE
  8
0
 10
192.274
 20
47.3554
 11
191.463
 21
47.8351
  0
LINE
  8
0
 10
191.463
 20
47.8351
 11
190.683
 21
48.3647
  0
LINE
  8
0
 10
190.683
 20
48.3647
 11
189.939
 21
48.9423
  0
LINE
  8
0
 10
189.939
 20
48.9423
 11
189.232
 21
49.5655
  0
LINE
  8
0
 10
189.232
 20
49.5655
 11
188.565
 21
50.2318
  0
LINE
  8
0
 10
188.565
 20
50.2318
 11
187.942
 21
50.9386
  0
LINE
  8
0
 10
187.942
 20
50.9386
 11
187.365
 21
51.6832
  0
LINE
  8
0
 10
187.365
 20
51.6832
 11
186.835
 21
52.4626
  0
LINE
  8
0
 10
186.835
 20
52.4626
 11
186.355
 21
53.2737
  0
LINE
  8
0
 10
186.355
 20
53.2737
 11
185.928
 21
54.1133
  0
LINE
  8
0
 10
185.928
 20
54.1133
 11
185.553
 21
54.9781
  0
LINE
  8
0
 10
185.553
 20
54.9781
 11
185.234
 21
55.8647
  0
LINE
  8
0
 10
185.234
 20
55.8647
 11
184.971
 21
56.7697
  0
LINE
  8
0
 10
184.971
 20
56.7697
 11
184.766
 21
57.6893
  0
LINE
  8
0
 10
184.766
 20
57.6893
 11
184.618
 21
58.62
  0
LINE
  8
0
 10
184.618
 20
58.62
 11
184.53
 21
59.5582
  0
LINE
  8
0
 10
184.53
 20
59.5582
 11
184.5
 21
60.5
  0
LINE
  8
0
 10
184.5
 20
60.5
 11
184.53
 21
61.4418
  0
LINE
  8
0
 10
184.53
 20
61.4418
 11
184.618
 21
62.38
  0
LINE
  8
0
 10
184.618
 20
62.38
 11
184.766
 21
63.3107
  0
LINE
  8
0
 10
184.766
 20
63.3107
 11
184.971
 21
64.2303
  0
LINE
  8
0
 10
184.971
 20
64.2303
 11
185.234
 21
65.1353
  0
LINE
  8
0
 10
185.234
 20
65.1353
 11
185.553
 21
66.0219
  0
LINE
  8
0
 10
185.553
 20
66.0219
 11
185.928
 21
66.8867
  0
LINE
  8
0
 10
185.928
 20
66.8867
 11
186.355
 21
67.7263
  0
LINE
  8
0
 10
186.355
 20
67.7263
 11
186.835
 21
68.5374
  0
LINE
  8
0
 10
186.835
 20
68.5374
 11
187.365
 21
69.3168
  0
LINE
  8
0
 10
187.365
 20
69.3168
 11
187.942
 21
70.0614
  0
LINE
  8
0
 10
187.942
 20
70.0614
 11
188.565
 21
70.7682
  0
LINE
  8
0
 10
188.565
 20
70.7682
 11
189.232
 21
71.4345
  0
LINE
  8
0
 10
189.232
 20
71.4345
 11
189.939
 21
72.0577
  0
LINE
  8
0
 10
189.939
 20
72.0577
 11
190.683
 21
72.6353
  0
LINE
  8
0
 10
190.683
 20
72.6353
 11
191.463
 21
73.1649
  0
LINE
  8
0
 10
191.463
 20
73.1649
 11
192.274
 21
73.6446
  0
LINE
  8
0
 10
192.274
 20
73.6446
 11
193.113
 21
74.0724
  0
LINE
  8
0
 10
193.113
 20
74.0724
 11
193.978
 21
74.4466
  0
LINE
  8
0
 10
193.978
 20
74.4466
 11
194.865
 21
74.7658
  0
LINE
  8
0
 10
194.865
 20
74.7658
 11
195.77
 21
75.0287
  0
LINE
  8
0
 10
195.77
 20
75.0287
 11
196.689
 21
75.2343
  0
LINE
  8
0
 10
196.689
 20
75.2343
 11
197.62
 21
75.3817
  0
LINE
  8
0
 10
197.62
 20
75.3817
 11
198.558
 21
75.4704
  0
LINE
  8
0
 10
198.558
 20
75.4704
 11
199.5
 21
75.5
  0
LINE
  8
0
 10
199.5
 20
75.5
 11
200.442
 21
75.4704
  0
LINE
  8
0
 10
200.442
 20
75.4704
 11
201.38
 21
75.3817
  0
LINE
  8
0
 10
201.38
 20
75.3817
 11
202.311
 21
75.2343
  0
LINE
  8
0
 10
202.311
 20
75.2343
 11
203.23
 21
75.0287
  0
LINE
  8
0
 10
203.23
 20
75.0287
 11
204.135
 21
74.7658
  0
LINE
  8
0
 10
204.135
 20
74.7658
 11
205.022
 21
74.4466
  0
LINE
  8
0
 10
205.022
 20
74.4466
 11
205.887
 21
74.0724
  0
LINE
  8
0
 10
205.887
 20
74.0724
 11
206.726
 21
73.6446
  0
LINE
  8
0
 10
206.726
 20
73.6446
 11
207.537
 21
73.1649
  0
LINE
  8
0
 10
207.537
 20
73.1649
 11
208.317
 21
72.6353
  0
LINE
  8
0
 10
208.317
 20
72.6353
 11
209.061
 21
72.0577
  0
LINE
  8
0
 10
209.061
 20
72.0577
 11
209.768
 21
71.4345
  0
LINE
  8
0
 10
209.768
 20
71.4345
 11
210.435
 21
70.7682
  0
LINE
  8
0
 10
210.435
 20
70.7682
 11
211.058
 21
70.0614
  0
LINE
  8
0
 10
211.058
 20
70.0614
 11
211.635
 21
69.3168
  0
LINE
  8
0
 10
211.635
 20
69.3168
 11
212.165
 21
68.5374
  0
LINE
  8
0
 10
212.165
 20
68.5374
 11
212.645
 21
67.7263
  0
LINE
  8
0
 10
212.645
 20
67.7263
 11
213.072
 21
66.8867
  0
LINE
  8
0
 10
213.072
 20
66.8867
 11
213.447
 21
66.0219
  0
LINE
  8
0
 10
213.447
 20
66.0219
 11
213.766
 21
65.1353
  0
LINE
  8
0
 10
213.766
 20
65.1353
 11
214.029
 21
64.2303
  0
LINE
  8
0
 10
214.029
 20
64.2303
 11
214.234
 21
63.3107
  0
LINE
  8
0
 10
214.234
 20
63.3107
 11
214.382
 21
62.38
  0
LINE
  8
0
 10
214.382
 20
62.38
 11
214.47
 21
61.4418
  0
LINE
  8
0
 10
214.47
 20
61.4418
 11
214.5
 21
60.5
  0
LINE
  8
0
 10
214.5
 20
60.5
 11
214.47
 21
59.5582
  0
LINE
  8
0
 10
214.47
 20
59.5582
 11
214.382
 21
58.62
  0
LINE
  8
0
 10
214.382
 20
58.62
 11
214.234
 21
57.6893
  0
LINE
  8
0
 10
214.234
 20
57.6893
 11
214.029
 21
56.7697
  0
LINE
  8
0
 10
214.029
 20
56.7697
 11
213.766
 21
55.8647
  0
LINE
  8
0
 10
213.766
 20
55.8647
 11
213.447
 21
54.9781
  0
LINE
  8
0
 10
213.447
 20
54.9781
 11
213.072
 21
54.1133
  0
LINE
  8
0
 10
213.072
 20
54.1133
 11
212.645
 21
53.2737
  0
LINE
  8
0
 10
212.645
 20
53.2737
 11
212.165
 21
52.4626
  0
LINE
  8
0
 10
212.165
 20
52.4626
 11
211.635
 21
51.6832
  0
LINE
  8
0
 10
211.635
 20
51.6832
 11
211.058
 21
50.9386
  0
LINE
  8
0
 10
211.058
 20
50.9386
 11
210.435
 21
50.2318
  0
LINE
  8
0
 10
210.435
 20
50.2318
 11
209.768
 21
49.5655
  0
LINE
  8
0
 10
209.768
 20
49.5655
 11
209.061
 21
48.9423
  0
LINE
  8
0
 10
209.061
 20
48.9423
 11
208.317
 21
48.3647
  0
LINE
  8
0
 10
208.317
 20
48.3647
 11
207.537
 21
47.8351
  0
LINE
  8
0
 10
207.537
 20
47.8351
 11
206.726
 21
47.3554
  0
LINE
  8
0
 10
206.726
 20
47.3554
 11
205.887
 21
46.9276
  0
LINE
  8
0
 10
205.887
 20
46.9276
 11
205.022
 21
46.5534
  0
LINE
  8
0
 10
205.022
 20
46.5534
 11
204.135
 21
46.2342
  0
LINE
  8
0
 10
204.135
 20
46.2342
 11
203.23
 21
45.9713
  0
LINE
  8
0
 10
203.23
 20
45.9713
 11
202.311
 21
45.7657
  0
LINE
  8
0
 10
202.311
 20
45.7657
 11
201.38
 21
45.6183
  0
LINE
  8
0
 10
201.38
 20
45.6183
 11
200.442
 21
45.5296
  0
LINE
  8
0
 10
200.442
 20
45.5296
 11
199.5
 21
45.5
  0
LINE
  8
0
 10
199.5
 20
45.5
 11
198.558
 21
45.5296
  0
LINE
  8
0
 10
45.8721
 20
50.5197
 11
45.2467
 21
50.5789
  0
LINE
  8
0
 10
45.2467
 20
50.5789
 11
44.6262
 21
50.6771
  0
LINE
  8
0
 10
44.6262
 20
50.6771
 11
44.0131
 21
50.8142
  0
LINE
  8
0
 10
44.0131
 20
50.8142
 11
43.4098
 21
50.9894
  0
LINE
  8
0
 10
43.4098
 20
50.9894
 11
42.8188
 21
51.2022
  0
LINE
  8
0
 10
42.8188
 20
51.2022
 11
42.2422
 21
51.4517
  0
LINE
  8
0
 10
42.2422
 20
51.4517
 11
41.6825
 21
51.7369
  0
LINE
  8
0
 10
41.6825
 20
51.7369
 11
41.1417
 21
52.0567
  0
LINE
  8
0
 10
41.1417
 20
52.0567
 11
40.6222
 21
52.4098
  0
LINE
  8
0
 10
40.6222
 20
52.4098
 11
40.1258
 21
52.7949
  0
LINE
  8
0
 10
40.1258
 20
52.7949
 11
39.6545
 21
53.2103
  0
LINE
  8
0
 10
39.6545
 20
53.2103
 11
39.2103
 21
53.6545
  0
LINE
  8
0
 10
39.2103
 20
53.6545
 11
38.7949
 21
54.1258
  0
LINE
  8
0
 10
38.7949
 20
54.1258
 11
38.4098
 21
54.6222
  0
LINE
  8
0
 10
38.4098
 20
54.6222
 11
38.0567
 21
55.1417
  0
LINE
  8
0
 10
38.0567
 20
55.1417
 11
37.7369
 21
55.6825
  0
LINE
  8
0
 10
37.7369
 20
55.6825
 11
37.4517
 21
56.2422
  0
LINE
  8
0
 10
37.4517
 20
56.2422
 11
37.2022
 21
56.8188
  0
LINE
  8
0
 10
37.2022
 20
56.8188
 11
36.9894
 21
57.4098
  0
LINE
  8
0
 10
36.9894
 20
57.4098
 11
36.8142
 21
58.0131
  0
LINE
  8
0
 10
36.8142
 20
58.0131
 11
36.6771
 21
58.6262
  0
LINE
  8
0
 10
36.6771
 20
58.6262
 11
36.5789
 21
59.2467
  0
LINE
  8
0
 10
36.5789
 20
59.2467
 11
36.5197
 21
59.8721
  0
LINE
  8
0
 10
36.5197
 20
59.8721
 11
36.5
 21
60.5
  0
LINE
  8
0
 10
36.5
 20
60.5
 11
36.5197
 21
61.1279
  0
LINE
  8
0
 10
36.5197
 20
61.1279
 11
36.5789
 21
61.7533
  0
LINE
  8
0
 10
36.5789
 20
61.7533
 11
36.6771
 21
62.3738
  0
LINE
  8
0
 10
36.6771
 20
62.3738
 11
36.8142
 21
62.9869
  0
LINE
  8
0
 10
36.8142
 20
62.9869
 11
36.9894
 21
63.5902
  0
LINE
  8
0
 10
36.9894
 20
63.5902
 11
37.2022
 21
64.1812
  0
LINE
  8
0
 10
37.2022
 20
64.1812
 11
37.4517
 21
64.7578
  0
LINE
  8
0
 10
37.4517
 20
64.7578
 11
37.7369
 21
65.3175
  0
LINE
  8
0
 10
37.7369
 20
65.3175
 11
38.0567
 21
65.8583
  0
LINE
  8
0
 10
38.0567
 20
65.8583
 11
38.4098
 21
66.3778
  0
LINE
  8
0
 10
38.4098
 20
66.3778
 11
38.7949
 21
66.8742
  0
LINE
  8
0
 10
38.7949
 20
66.8742
 11
39.2103
 21
67.3455
  0
LINE
  8
0
 10
39.2103
 20
67.3455
 11
39.6545
 21
67.7897
  0
LINE
  8
0
 10
39.6545
 20
67.7897
 11
40.1258
 21
68.2051
  0
LINE
  8
0
 10
40.1258
 20
68.2051
 11
40.6222
 21
68.5902
  0
LINE
  8
0
 10
40.6222
 20
68.5902
 11
41.1417
 21
68.9433
  0
LINE
  8
0
 10
41.1417
 20
68.9433
 11
41.6825
 21
69.2631
  0
LINE
  8
0
 10
41.6825
 20
69.2631
 11
42.2422
 21
69.5483
  0
LINE
  8
0
 10
42.2422
 20
69.5483
 11
42.8188
 21
69.7978
  0
LINE
  8
0
 10
42.8188
 20
69.7978
 11
43.4098
 21
70.0106
  0
LINE
  8
0
 10
43.4098
 20
70.0106
 11
44.0131
 21
70.1858
  0
LINE
  8
0
 10
44.0131
 20
70.1858
 11
44.6262
 21
70.3229
  0
LINE
  8
0
 10
44.6262
 20
70.3229
 11
45.2467
 21
70.4211
  0
LINE
  8
0
 10
45.2467
 20
70.4211
 11
45.8721
 21
70.4803
  0
LINE
  8
0
 10
45.8721
 20
70.4803
 11
46.5
 21
70.5
  0
LINE
  8
0
 10
46.5
 20
70.5
 11
47.1279
 21
70.4803
  0
LINE
  8
0
 10
47.1279
 20
70.4803
 11
47.7533
 21
70.4211
  0
LINE
  8
0
 10
47.7533
 20
70.4211
 11
48.3738
 21
70.3229
  0
LINE
  8
0
 10
48.3738
 20
70.3229
 11
48.9869
 21
70.1858
  0
LINE
  8
0
 10
48.9869
 20
70.1858
 11
49.5902
 21
70.0106
  0
LINE
  8
0
 10
49.5902
 20
70.0106
 11
50.1812
 21
69.7978
  0
LINE
  8
0
 10
50.1812
 20
69.7978
 11
50.7578
 21
69.5483
  0
LINE
  8
0
 10
50.7578
 20
69.5483
 11
51.3175
 21
69.2631
  0
LINE
  8
0
 10
51.3175
 20
69.2631
 11
51.8583
 21
68.9433
  0
LINE
  8
0
 10
51.8583
 20
68.9433
 11
52.3778
 21
68.5902
  0
LINE
  8
0
 10
52.3778
 20
68.5902
 11
52.8742
 21
68.2051
  0
LINE
  8
0
 10
52.8742
 20
68.2051
 11
53.3455
 21
67.7897
  0
LINE
  8
0
 10
53.3455
 20
67.7897
 11
53.7897
 21
67.3455
  0
LINE
  8
0
 10
53.7897
 20
67.3455
 11
54.2051
 21
66.8742
  0
LINE
  8
0
 10
54.2051
 20
66.8742
 11
54.5902
 21
66.3778
  0
LINE
  8
0
 10
54.5902
 20
66.3778
 11
54.9433
 21
65.8583
  0
LINE
  8
0
 10
54.9433
 20
65.8583
 11
55.2631
 21
65.3175
  0
LINE
  8
0
 10
55.2631
 20
65.3175
 11
55.5483
 21
64.7578
  0
LINE
  8
0
 10
55.5483
 20
64.7578
 11
55.7978
 21
64.1812
  0
LINE
  8
0
 10
55.7978
 20
64.1812
 11
56.0106
 21
63.5902
  0
LINE
  8
0
 10
56.0106
 20
63.5902
 11
56.1858
 21
62.9869
  0
LINE
  8
0
 10
56.1858
 20
62.9869
 11
56.3229
 21
62.3738
  0
LINE
  8
0
 10
56.3229
 20
62.3738
 11
56.4211
 21
61.7533
  0
LINE
  8
0
 10
56.4211
 20
61.7533
 11
56.4803
 21
61.1279
  0
LINE
  8
0
 10
56.4803
 20
61.1279
 11
56.5
 21
60.5
  0
LINE
  8
0
 10
56.5
 20
60.5
 11
56.4803
 21
59.8721
  0
LINE
  8
0
 10
56.4803
 20
59.8721
 11
56.4211
 21
59.2467
  0
LINE
  8
0
 10
56.4211
 20
59.2467
 11
56.3229
 21
58.6262
  0
LINE
  8
0
 10
56.3229
 20
58.6262
 11
56.1858
 21
58.0131
  0
LINE
  8
0
 10
56.1858
 20
58.0131
 11
56.0106
 21
57.4098
  0
LINE
  8
0
 10
56.0106
 20
57.4098
 11
55.7978
 21
56.8188
  0
LINE
  8
0
 10
55.7978
 20
56.8188
 11
55.5483
 21
56.2422
  0
LINE
  8
0
 10
55.5483
 20
56.2422
 11
55.2631
 21
55.6825
  0
LINE
  8
0
 10
55.2631
 20
55.6825
 11
54.9433
 21
55.1417
  0
LINE
  8
0
 10
54.9433
 20
55.1417
 11
54.5902
 21
54.6222
  0
LINE
  8
0
 10
54.5902
 20
54.6222
 11
54.2051
 21
54.1258
  0
LINE
  8
0
 10
54.2051
 20
54.1258
 11
53.7897
 21
53.6545
  0
LINE
  8
0
 10
53.7897
 20
53.6545
 11
53.3455
 21
53.2103
  0
LINE
  8
0
 10
53.3455
 20
53.2103
 11
52.8742
 21
52.7949
  0
LINE
  8
0
 10
52.8742
 20
52.7949
 11
52.3778
 21
52.4098
  0
LINE
  8
0
 10
52.3778
 20
52.4098
 11
51.8583
 21
52.0567
  0
LINE
  8
0
 10
51.8583
 20
52.0567
 11
51.3175
 21
51.7369
  0
LINE
  8
0
 10
51.3175
 20
51.7369
 11
50.7578
 21
51.4517
  0
LINE
  8
0
 10
50.7578
 20
51.4517
 11
50.1812
 21
51.2022
  0
LINE
  8
0
 10
50.1812
 20
51.2022
 11
49.5902
 21
50.9894
  0
LINE
  8
0
 10
49.5902
 20
50.9894
 11
48.9869
 21
50.8142
  0
LINE
  8
0
 10
48.9869
 20
50.8142
 11
48.3738
 21
50.6771
  0
LINE
  8
0
 10
48.3738
 20
50.6771
 11
47.7533
 21
50.5789
  0
LINE
  8
0
 10
47.7533
 20
50.5789
 11
47.1279
 21
50.5197
  0
LINE
  8
0
 10
47.1279
 20
50.5197
 11
46.5
 21
50.5
  0
LINE
  8
0
 10
46.5
 20
50.5
 11
45.8721
 21
50.5197
  0
LINE
  8
0
 10
126.558
 20
27.5296
 11
125.62
 21
27.6183
  0
LINE
  8
0
 10
125.62
 20
27.6183
 11
124.689
 21
27.7657
  0
LINE
  8
0
 10
124.689
 20
27.7657
 11
123.77
 21
27.9713
  0
LINE
  8
0
 10
123.77
 20
27.9713
 11
122.865
 21
28.2342
  0
LINE
  8
0
 10
122.865
 20
28.2342
 11
121.978
 21
28.5534
  0
LINE
  8
0
 10
121.978
 20
28.5534
 11
121.113
 21
28.9276
  0
LINE
  8
0
 10
121.113
 20
28.9276
 11
120.274
 21
29.3554
  0
LINE
  8
0
 10
120.274
 20
29.3554
 11
119.463
 21
29.8351
  0
LINE
  8
0
 10
119.463
 20
29.8351
 11
118.683
 21
30.3647
  0
LINE
  8
0
 10
118.683
 20
30.3647
 11
117.939
 21
30.9423
  0
LINE
  8
0
 10
117.939
 20
30.9423
 11
117.232
 21
31.5655
  0
LINE
  8
0
 10
117.232
 20
31.5655
 11
116.565
 21
32.2318
  0
LINE
  8
0
 10
116.565
 20
32.2318
 11
115.942
 21
32.9386
  0
LINE
  8
0
 10
115.942
 20
32.9386
 11
115.365
 21
33.6832
  0
LINE
  8
0
 10
115.365
 20
33.6832
 11
114.835
 21
34.4626
  0
LINE
  8
0
 10
114.835
 20
34.4626
 11
114.355
 21
35.2737
  0
LINE
  8
0
 10
114.355
 20
35.2737
 11
113.928
 21
36.1133
  0
LINE
  8
0
 10
113.928
 20
36.1133
 11
113.553
 21
36.9781
  0
LINE
  8
0
 10
113.553
 20
36.9781
 11
113.234
 21
37.8647
  0
LINE
  8
0
 10
113.234
 20
37.8647
 11
112.971
 21
38.7697
  0
LINE
  8
0
 10
112.971
 20
38.7697
 11
112.766
 21
39.6893
  0
LINE
  8
0
 10
112.766
 20
39.6893
 11
112.618
 21
40.62
  0
LINE
  8
0
 10
112.618
 20
40.62
 11
112.53
 21
41.5582
  0
LINE
  8
0
 10
112.53
 20
41.5582
 11
112.5
 21
42.5
  0
LINE
  8
0
 10
112.5
 20
42.5
 11
112.53
 21
43.4418
  0
LINE
  8
0
 10
112.53
 20
43.4418
 11
112.618
 21
44.38
  0
LINE
  8
0
 10
112.618
 20
44.38
 11
112.766
 21
45.3107
  0
LINE
  8
0
 10
112.766
 20
45.3107
 11
112.971
 21
46.2303
  0
LINE
  8
0
 10
112.971
 20
46.2303
 11
113.234
 21
47.1353
  0
LINE
  8
0
 10
113.234
 20
47.1353
 11
113.553
 21
48.0219
  0
LINE
  8
0
 10
113.553
 20
48.0219
 11
113.928
 21
48.8867
  0
LINE
  8
0
 10
113.928
 20
48.8867
 11
114.355
 21
49.7263
  0
LINE
  8
0
 10
114.355
 20
49.7263
 11
114.835
 21
50.5374
  0
LINE
  8
0
 10
114.835
 20
50.5374
 11
115.365
 21
51.3168
  0
LINE
  8
0
 10
115.365
 20
51.3168
 11
115.942
 21
52.0614
  0
LINE
  8
0
 10
115.942
 20
52.0614
 11
116.565
 21
52.7682
  0
LINE
  8
0
 10
116.565
 20
52.7682
 11
117.232
 21
53.4345
  0
LINE
  8
0
 10
117.232
 20
53.4345
 11
117.939
 21
54.0577
  0
LINE
  8
0
 10
117.939
 20
54.0577
 11
118.683
 21
54.6353
  0
LINE
  8
0
 10
118.683
 20
54.6353
 11
119.463
 21
55.1649
  0
LINE
  8
0
 10
119.463
 20
55.1649
 11
120.274
 21
55.6446
  0
LINE
  8
0
 10
120.274
 20
55.6446
 11
121.113
 21
56.0724
  0
LINE
  8
0
 10
121.113
 20
56.0724
 11
121.978
 21
56.4466
  0
LINE
  8
0
 10
121.978
 20
56.4466
 11
122.865
 21
56.7658
  0
LINE
  8
0
 10
122.865
 20
56.7658
 11
123.77
 21
57.0287
  0
LINE
  8
0
 10
123.77
 20
57.0287
 11
124.689
 21
57.2343
  0
LINE
  8
0
 10
124.689
 20
57.2343
 11
125.62
 21
57.3817
  0
LINE
  8
0
 10
125.62
 20
57.3817
 11
126.558
 21
57.4704
  0
LINE
  8
0
 10
126.558
 20
57.4704
 11
127.5
 21
57.5
  0
LINE
  8
0
 10
127.5
 20
57.5
 11
128.442
 21
57.4704
  0
LINE
  8
0
 10
128.442
 20
57.4704
 11
129.38
 21
57.3817
  0
LINE
  8
0
 10
129.38
 20
57.3817
 11
130.311
 21
57.2343
  0
LINE
  8
0
 10
130.311
 20
57.2343
 11
131.23
 21
57.0287
  0
LINE
  8
0
 10
131.23
 20
57.0287
 11
132.135
 21
56.7658
  0
LINE
  8
0
 10
132.135
 20
56.7658
 11
133.022
 21
56.4466
  0
LINE
  8
0
 10
133.022
 20
56.4466
 11
133.887
 21
56.0724
  0
LINE
  8
0
 10
133.887
 20
56.0724
 11
134.726
 21
55.6446
  0
LINE
  8
0
 10
134.726
 20
55.6446
 11
135.537
 21
55.1649
  0
LINE
  8
0
 10
135.537
 20
55.1649
 11
136.317
 21
54.6353
  0
LINE
  8
0
 10
136.317
 20
54.6353
 11
137.061
 21
54.0577
  0
LINE
  8
0
 10
137.061
 20
54.0577
 11
137.768
 21
53.4345
  0
LINE
  8
0
 10
137.768
 20
53.4345
 11
138.435
 21
52.7682
  0
LINE
  8
0
 10
138.435
 20
52.7682
 11
139.058
 21
52.0614
  0
LINE
  8
0
 10
139.058
 20
52.0614
 11
139.635
 21
51.3168
  0
LINE
  8
0
 10
139.635
 20
51.3168
 11
140.165
 21
50.5374
  0
LINE
  8
0
 10
140.165
 20
50.5374
 11
140.645
 21
49.7263
  0
LINE
  8
0
 10
140.645
 20
49.7263
 11
141.072
 21
48.8867
  0
LINE
  8
0
 10
141.072
 20
48.8867
 11
141.447
 21
48.0219
  0
LINE
  8
0
 10
141.447
 20
48.0219
 11
141.766
 21
47.1353
  0
LINE
  8
0
 10
141.766
 20
47.1353
 11
142.029
 21
46.2303
  0
LINE
  8
0
 10
142.029
 20
46.2303
 11
142.234
 21
45.3107
  0
LINE
  8
0
 10
142.234
 20
45.3107
 11
142.382
 21
44.38
  0
LINE
  8
0
 10
142.382
 20
44.38
 11
142.47
 21
43.4418
  0
LINE
  8
0
 10
142.47
 20
43.4418
 11
142.5
 21
42.5
  0
LINE
  8
0
 10
142.5
 20
42.5
 11
142.47
 21
41.5582
  0
LINE
  8
0
 10
142.47
 20
41.5582
 11
142.382
 21
40.62
  0
LINE
  8
0
 10
142.382
 20
40.62
 11
142.234
 21
39.6893
  0
LINE
  8
0
 10
142.234
 20
39.6893
 11
142.029
 21
38.7697
  0
LINE
  8
0
 10
142.029
 20
38.7697
 11
141.766
 21
37.8647
  0
LINE
  8
0
 10
141.766
 20
37.8647
 11
141.447
 21
36.9781
  0
LINE
  8
0
 10
141.447
 20
36.9781
 11
141.072
 21
36.1133
  0
LINE
  8
0
 10
141.072
 20
36.1133
 11
140.645
 21
35.2737
  0
LINE
  8
0
 10
140.645
 20
35.2737
 11
140.165
 21
34.4626
  0
LINE
  8
0
 10
140.165
 20
34.4626
 11
139.635
 21
33.6832
  0
LINE
  8
0
 10
139.635
 20
33.6832
 11
139.058
 21
32.9386
  0
LINE
  8
0
 10
139.058
 20
32.9386
 11
138.435
 21
32.2318
  0
LINE
  8
0
 10
138.435
 20
32.2318
 11
137.768
 21
31.5655
  0
LINE
  8
0
 10
137.768
 20
31.5655
 11
137.061
 21
30.9423
  0
LINE
  8
0
 10
137.061
 20
30.9423
 11
136.317
 21
30.3647
  0
LINE
  8
0
 10
136.317
 20
30.3647
 11
135.537
 21
29.8351
  0
LINE
  8
0
 10
135.537
 20
29.8351
 11
134.726
 21
29.3554
  0
LINE
  8
0
 10
134.726
 20
29.3554
 11
133.887
 21
28.9276
  0
LINE
  8
0
 10
133.887
 20
28.9276
 11
133.022
 21
28.5534
  0
LINE
  8
0
 10
133.022
 20
28.5534
 11
132.135
 21
28.2342
  0
LINE
  8
0
 10
132.135
 20
28.2342
 11
131.23
 21
27.9713
  0
LINE
  8
0
 10
131.23
 20
27.9713
 11
130.311
 21
27.7657
  0
LINE
  8
0
 10
130.311
 20
27.7657
 11
129.38
 21
27.6183
  0
LINE
  8
0
 10
129.38
 20
27.6183
 11
128.442
 21
27.5296
  0
LINE
  8
0
 10
128.442
 20
27.5296
 11
127.5
 21
27.5
  0
LINE
  8
0
 10
127.5
 20
27.5
 11
126.558
 21
27.5296
  0
LINE
  8
0
 10
114.906
 20
5.00294
 11
114.812
 21
5.01183
  0
LINE
  8
0
 10
114.812
 20
5.01183
 11
114.719
 21
5.02657
  0
LINE
  8
0
 10
114.719
 20
5.02657
 11
114.627
 21
5.04712
  0
LINE
  8
0
 10
114.627
 20
5.04712
 11
114.536
 21
5.07341
  0
LINE
  8
0
 10
114.536
 20
5.07341
 11
114.448
 21
5.10533
  0
LINE
  8
0
 10
114.448
 20
5.10533
 11
114.361
 21
5.14275
  0
LINE
  8
0
 10
114.361
 20
5.14275
 11
114.277
 21
5.18553
  0
LINE
  8
0
 10
114.277
 20
5.18553
 11
114.196
 21
5.23351
  0
LINE
  8
0
 10
114.196
 20
5.23351
 11
114.118
 21
5.28647
  0
LINE
  8
0
 10
114.118
 20
5.28647
 11
114.044
 21
5.34422
  0
LINE
  8
0
 10
114.044
 20
5.34422
 11
113.973
 21
5.40654
  0
LINE
  8
0
 10
113.973
 20
5.40654
 11
113.907
 21
5.47318
  0
LINE
  8
0
 10
113.907
 20
5.47318
 11
113.844
 21
5.54385
  0
LINE
  8
0
 10
113.844
 20
5.54385
 11
113.786
 21
5.61832
  0
LINE
  8
0
 10
113.786
 20
5.61832
 11
113.734
 21
5.69626
  0
LINE
  8
0
 10
113.734
 20
5.69626
 11
113.686
 21
5.77736
  0
LINE
  8
0
 10
113.686
 20
5.77736
 11
113.643
 21
5.86133
  0
LINE
  8
0
 10
113.643
 20
5.86133
 11
113.605
 21
5.9478
  0
LINE
  8
0
 10
113.605
 20
5.9478
 11
113.573
 21
6.03647
  0
LINE
  8
0
 10
113.573
 20
6.03647
 11
113.547
 21
6.12695
  0
LINE
  8
0
 10
113.547
 20
6.12695
 11
113.527
 21
6.21892
  0
LINE
  8
0
 10
113.527
 20
6.21892
 11
113.512
 21
6.312
  0
LINE
  8
0
 10
113.512
 20
6.312
 11
113.503
 21
6.40581
  0
LINE
  8
0
 10
113.503
 20
6.40581
 11
113.5
 21
6.5
  0
LINE
  8
0
 10
113.5
 20
6.5
 11
113.503
 21
6.59418
  0
LINE
  8
0
 10
113.503
 20
6.59418
 11
113.512
 21
6.68799
  0
LINE
  8
0
 10
113.512
 20
6.68799
 11
113.527
 21
6.78107
  0
LINE
  8
0
 10
113.527
 20
6.78107
 11
113.547
 21
6.87303
  0
LINE
  8
0
 10
113.547
 20
6.87303
 11
113.573
 21
6.96352
  0
LINE
  8
0
 10
113.573
 20
6.96352
 11
113.605
 21
7.05219
  0
LINE
  8
0
 10
113.605
 20
7.05219
 11
113.643
 21
7.13866
  0
LINE
  8
0
 10
113.643
 20
7.13866
 11
113.686
 21
7.22263
  0
LINE
  8
0
 10
113.686
 20
7.22263
 11
113.734
 21
7.30373
  0
LINE
  8
0
 10
113.734
 20
7.30373
 11
113.786
 21
7.38167
  0
LINE
  8
0
 10
113.786
 20
7.38167
 11
113.844
 21
7.45613
  0
LINE
  8
0
 10
113.844
 20
7.45613
 11
113.907
 21
7.52681
  0
LINE
  8
0
 10
113.907
 20
7.52681
 11
113.973
 21
7.59344
  0
LINE
  8
0
 10
113.973
 20
7.59344
 11
114.044
 21
7.65576
  0
LINE
  8
0
 10
114.044
 20
7.65576
 11
114.118
 21
7.71352
  0
LINE
  8
0
 10
114.118
 20
7.71352
 11
114.196
 21
7.76648
  0
LINE
  8
0
 10
114.196
 20
7.76648
 11
114.277
 21
7.81445
  0
LINE
  8
0
 10
114.277
 20
7.81445
 11
114.361
 21
7.85724
  0
LINE
  8
0
 10
114.361
 20
7.85724
 11
114.448
 21
7.89465
  0
LINE
  8
0
 10
114.448
 20
7.89465
 11
114.536
 21
7.92657
  0
LINE
  8
0
 10
114.536
 20
7.92657
 11
114.627
 21
7.95287
  0
LINE
  8
0
 10
114.627
 20
7.95287
 11
114.719
 21
7.97342
  0
LINE
  8
0
 10
114.719
 20
7.97342
 11
114.812
 21
7.98816
  0
LINE
  8
0
 10
114.812
 20
7.98816
 11
114.906
 21
7.99704
  0
LINE
  8
0
 10
114.906
 20
7.99704
 11
115
 21
8
  0
LINE
  8
0
 10
115
 20
8
 11
115.094
 21
7.99704
  0
LINE
  8
0
 10
115.094
 20
7.99704
 11
115.188
 21
7.98816
  0
LINE
  8
0
 10
115.188
 20
7.98816
 11
115.281
 21
7.97342
  0
LINE
  8
0
 10
115.281
 20
7.97342
 11
115.373
 21
7.95287
  0
LINE
  8
0
 10
115.373
 20
7.95287
 11
115.464
 21
7.92657
  0
LINE
  8
0
 10
115.464
 20
7.92657
 11
115.552
 21
7.89465
  0
LINE
  8
0
 10
115.552
 20
7.89465
 11
115.639
 21
7.85724
  0
LINE
  8
0
 10
115.639
 20
7.85724
 11
115.723
 21
7.81445
  0
LINE
  8
0
 10
115.723
 20
7.81445
 11
115.804
 21
7.76648
  0
LINE
  8
0
 10
115.804
 20
7.76648
 11
115.882
 21
7.71352
  0
LINE
  8
0
 10
115.882
 20
7.71352
 11
115.956
 21
7.65576
  0
LINE
  8
0
 10
115.956
 20
7.65576
 11
116.027
 21
7.59344
  0
LINE
  8
0
 10
116.027
 20
7.59344
 11
116.093
 21
7.52681
  0
LINE
  8
0
 10
116.093
 20
7.52681
 11
116.156
 21
7.45613
  0
LINE
  8
0
 10
116.156
 20
7.45613
 11
116.214
 21
7.38167
  0
LINE
  8
0
 10
116.214
 20
7.38167
 11
116.266
 21
7.30373
  0
LINE
  8
0
 10
116.266
 20
7.30373
 11
116.314
 21
7.22263
  0
LINE
  8
0
 10
116.314
 20
7.22263
 11
116.357
 21
7.13866
  0
LINE
  8
0
 10
116.357
 20
7.13866
 11
116.395
 21
7.05219
  0
LINE
  8
0
 10
116.395
 20
7.05219
 11
116.427
 21
6.96352
  0
LINE
  8
0
 10
116.427
 20
6.96352
 11
116.453
 21
6.87303
  0
LINE
  8
0
 10
116.453
 20
6.87303
 11
116.473
 21
6.78107
  0
LINE
  8
0
 10
116.473
 20
6.78107
 11
116.488
 21
6.68799
  0
LINE
  8
0
 10
116.488
 20
6.68799
 11
116.497
 21
6.59418
  0
LINE
  8
0
 10
116.497
 20
6.59418
 11
116.5
 21
6.5
  0
LINE
  8
0
 10
116.5
 20
6.5
 11
116.497
 21
6.40581
  0
LINE
  8
0
 10
116.497
 20
6.40581
 11
116.488
 21
6.312
  0
LINE
  8
0
 10
116.488
 20
6.312
 11
116.473
 21
6.21892
  0
LINE
  8
0
 10
116.473
 20
6.21892
 11
116.453
 21
6.12695
  0
LINE
  8
0
 10
116.453
 20
6.12695
 11
116.427
 21
6.03647
  0
LINE
  8
0
 10
116.427
 20
6.03647
 11
116.395
 21
5.9478
  0
LINE
  8
0
 10
116.395
 20
5.9478
 11
116.357
 21
5.86133
  0
LINE
  8
0
 10
116.357
 20
5.86133
 11
116.314
 21
5.77736
  0
LINE
  8
0
 10
116.314
 20
5.77736
 11
116.266
 21
5.69626
  0
LINE
  8
0
 10
116.266
 20
5.69626
 11
116.214
 21
5.61832
  0
LINE
  8
0
 10
116.214
 20
5.61832
 11
116.156
 21
5.54385
  0
LINE
  8
0
 10
116.156
 20
5.54385
 11
116.093
 21
5.47318
  0
LINE
  8
0
 10
116.093
 20
5.47318
 11
116.027
 21
5.40654
  0
LINE
  8
0
 10
116.027
 20
5.40654
 11
115.956
 21
5.34422
  0
LINE
  8
0
 10
115.956
 20
5.34422
 11
115.882
 21
5.28647
  0
LINE
  8
0
 10
115.882
 20
5.28647
 11
115.804
 21
5.23351
  0
LINE
  8
0
 10
115.804
 20
5.23351
 11
115.723
 21
5.18553
  0
LINE
  8
0
 10
115.723
 20
5.18553
 11
115.639
 21
5.14275
  0
LINE
  8
0
 10
115.639
 20
5.14275
 11
115.552
 21
5.10533
  0
LINE
  8
0
 10
115.552
 20
5.10533
 11
115.464
 21
5.07341
  0
LINE
  8
0
 10
115.464
 20
5.07341
 11
115.373
 21
5.04712
  0
LINE
  8
0
 10
115.373
 20
5.04712
 11
115.281
 21
5.02657
  0
LINE
  8
0
 10
115.281
 20
5.02657
 11
115.188
 21
5.01183
  0
LINE
  8
0
 10
115.188
 20
5.01183
 11
115.094
 21
5.00294
  0
LINE
  8
0
 10
115.094
 20
5.00294
 11
115
 21
5
  0
LINE
  8
0
 10
115
 20
5
 11
114.906
 21
5.00294
  0
ENDSEC
  0
SECTION
  2
OBJECTS
  0
DICTIONARY
  0
ENDSEC
  0
EOF
